<svg width="200" height="100" viewBox="0 0 200 100" fill="none" xmlns="http://www.w3.org/2000/svg">
<path d="M92 2H90V70H92V2Z" fill="#407BFF"/>
<path opacity="0.4" d="M92 2H90V70H92V2Z" fill="white"/>
<path opacity="0.3" d="M92.1336 2V63.9509L90.3301 63.0708V2H92.1336Z" fill="black"/>
<path d="M28 2H26V94H28V2Z" fill="#407BFF"/>
<path opacity="0.4" d="M28 2H26V94H28V2Z" fill="white"/>
<path opacity="0.3" d="M25.7646 2H27.5682V31.5056L25.7646 30.6255V2Z" fill="black"/>
<path d="M93.1081 2.74219H25V22.2022H93.1081V2.74219Z" fill="#407BFF"/>
<path opacity="0.7" d="M93.1081 2.74219H25V22.2022H93.1081V2.74219Z" fill="white"/>
<path d="M29.8659 17.3369H25V22.2028H29.8659V17.3369Z" fill="#2E353A"/>
<path d="M29.8659 7.6084H25V12.4743H29.8659V7.6084Z" fill="#2E353A"/>
<path d="M34.7321 12.4707H29.8662V17.3366H34.7321V12.4707Z" fill="#2E353A"/>
<path d="M39.5944 17.3369H34.7285V22.2028H39.5944V17.3369Z" fill="#2E353A"/>
<path d="M34.7321 2.74219H29.8662V7.60808H34.7321V2.74219Z" fill="#2E353A"/>
<path d="M39.5944 7.6084H34.7285V12.4743H39.5944V7.6084Z" fill="#2E353A"/>
<path d="M44.4606 12.4707H39.5947V17.3366H44.4606V12.4707Z" fill="#2E353A"/>
<path d="M49.3259 17.3359H44.46V22.2018H49.3259V17.3359Z" fill="#2E353A"/>
<path d="M44.4606 2.74219H39.5947V7.60808H44.4606V2.74219Z" fill="#2E353A"/>
<path d="M49.3268 7.6084H44.4609V12.4743H49.3268V7.6084Z" fill="#2E353A"/>
<path d="M54.1891 12.4707H49.3232V17.3366H54.1891V12.4707Z" fill="#2E353A"/>
<path d="M59.0544 17.3359H54.1885V22.2018H59.0544V17.3359Z" fill="#2E353A"/>
<path d="M54.1882 2.74219H49.3223V7.60808H54.1882V2.74219Z" fill="#2E353A"/>
<path d="M59.0544 7.6084H54.1885V12.4743H59.0544V7.6084Z" fill="#2E353A"/>
<path d="M63.9206 12.4707H59.0547V17.3366H63.9206V12.4707Z" fill="#2E353A"/>
<path d="M68.7819 17.3359H63.916V22.2018H68.7819V17.3359Z" fill="#2E353A"/>
<path d="M63.9206 2.74219H59.0547V7.60808H63.9206V2.74219Z" fill="#2E353A"/>
<path d="M68.7829 7.6084H63.917V12.4743H68.7829V7.6084Z" fill="#2E353A"/>
<path d="M73.6491 12.4707H68.7832V17.3366H73.6491V12.4707Z" fill="#2E353A"/>
<path d="M78.5143 17.3359H73.6484V22.2018H78.5143V17.3359Z" fill="#2E353A"/>
<path d="M73.6481 2.74219H68.7822V7.60808H73.6481V2.74219Z" fill="#2E353A"/>
<path d="M78.5143 7.6084H73.6484V12.4743H78.5143V7.6084Z" fill="#2E353A"/>
<path d="M83.3766 12.4707H78.5107V17.3366H83.3766V12.4707Z" fill="#2E353A"/>
<path d="M88.2419 17.3359H83.376V22.2018H88.2419V17.3359Z" fill="#2E353A"/>
<path d="M83.3766 2.74219H78.5107V7.60808H83.3766V2.74219Z" fill="#2E353A"/>
<path d="M88.2419 7.6084H83.376V12.4743H88.2419V7.6084Z" fill="#2E353A"/>
<path d="M93.1081 12.4707H88.2422V17.3366H93.1081V12.4707Z" fill="#2E353A"/>
<path d="M93.1081 2.74219H88.2422V7.60808H93.1081V2.74219Z" fill="#2E353A"/>
<g opacity="0.1">
<path d="M29.8659 17.3369H25V22.2028H29.8659V17.3369Z" fill="white"/>
<path d="M29.8659 7.6084H25V12.4743H29.8659V7.6084Z" fill="white"/>
<path d="M34.7321 12.4707H29.8662V17.3366H34.7321V12.4707Z" fill="white"/>
<path d="M39.5944 17.3369H34.7285V22.2028H39.5944V17.3369Z" fill="white"/>
<path d="M34.7321 2.74219H29.8662V7.60808H34.7321V2.74219Z" fill="white"/>
<path d="M39.5944 7.6084H34.7285V12.4743H39.5944V7.6084Z" fill="white"/>
<path d="M44.4606 12.4707H39.5947V17.3366H44.4606V12.4707Z" fill="white"/>
<path d="M49.3259 17.3359H44.46V22.2018H49.3259V17.3359Z" fill="white"/>
<path d="M44.4606 2.74219H39.5947V7.60808H44.4606V2.74219Z" fill="white"/>
<path d="M49.3268 7.6084H44.4609V12.4743H49.3268V7.6084Z" fill="white"/>
<path d="M54.1891 12.4707H49.3232V17.3366H54.1891V12.4707Z" fill="white"/>
<path d="M59.0544 17.3359H54.1885V22.2018H59.0544V17.3359Z" fill="white"/>
<path d="M54.1882 2.74219H49.3223V7.60808H54.1882V2.74219Z" fill="white"/>
<path d="M59.0544 7.6084H54.1885V12.4743H59.0544V7.6084Z" fill="white"/>
<path d="M63.9206 12.4707H59.0547V17.3366H63.9206V12.4707Z" fill="white"/>
<path d="M68.7819 17.3359H63.916V22.2018H68.7819V17.3359Z" fill="white"/>
<path d="M63.9206 2.74219H59.0547V7.60808H63.9206V2.74219Z" fill="white"/>
<path d="M68.7829 7.6084H63.917V12.4743H68.7829V7.6084Z" fill="white"/>
<path d="M73.6491 12.4707H68.7832V17.3366H73.6491V12.4707Z" fill="white"/>
<path d="M78.5143 17.3359H73.6484V22.2018H78.5143V17.3359Z" fill="white"/>
<path d="M73.6481 2.74219H68.7822V7.60808H73.6481V2.74219Z" fill="white"/>
<path d="M78.5143 7.6084H73.6484V12.4743H78.5143V7.6084Z" fill="white"/>
<path d="M83.3766 12.4707H78.5107V17.3366H83.3766V12.4707Z" fill="white"/>
<path d="M88.2419 17.3359H83.376V22.2018H88.2419V17.3359Z" fill="white"/>
<path d="M83.3766 2.74219H78.5107V7.60808H83.3766V2.74219Z" fill="white"/>
<path d="M88.2419 7.6084H83.376V12.4743H88.2419V7.6084Z" fill="white"/>
<path d="M93.1081 12.4707H88.2422V17.3366H93.1081V12.4707Z" fill="white"/>
<path d="M93.1081 2.74219H88.2422V7.60808H93.1081V2.74219Z" fill="white"/>
</g>
<path d="M135.517 56.5991C136.777 57.3783 136.972 58.6379 136.878 60.1153C136.86 60.4057 136.768 60.7094 136.547 60.8969C136.224 61.1692 136.129 62.3344 135.713 62.2654C130.099 61.3373 124.145 58.9452 118.635 57.526C117.607 57.261 116.54 56.9657 115.756 56.2506C114.315 54.9354 112.349 51.6649 112.876 49.839C113.579 47.4046 113.743 45.9599 115.733 46.6484C121.224 48.548 130.605 53.556 135.517 56.5967V56.5991Z" fill="#DBA76E"/>
<path d="M139.193 57.4766C140.008 58.2679 140.529 59.404 140.475 60.5765C140.42 61.7489 139.735 62.9262 138.686 63.432C137.331 64.0854 135.756 63.5433 134.513 62.7738C133.365 62.0611 132.264 61.0254 132.114 59.64C131.648 55.3519 137.177 55.5176 139.193 57.4766Z" fill="#DBA76E"/>
<path d="M141.432 61.6476C144.793 65.4445 148.743 68.6654 153.102 71.1628C153.579 71.4363 154.074 71.7121 154.404 72.1598C154.736 72.6075 154.861 73.2803 154.549 73.7884C154.028 74.6366 152.83 74.4394 151.993 74.0643C149.87 73.1133 147.96 71.7593 146.061 70.4114C143.235 68.4041 140.407 66.3968 137.581 64.3894C136.247 63.442 134.771 62.2006 134.892 60.4582C134.981 59.1745 136.448 57.5083 137.745 57.9451C139.127 58.4098 140.487 60.5804 141.432 61.6476Z" fill="#DBA76E"/>
<path d="M155.621 70.3049C157.721 69.9976 160.948 70.1682 161.386 71.0357C161.471 71.7315 159.878 71.9263 158.846 72.2251C159.793 72.132 160.768 72.3498 161.585 72.8374C161.763 72.9439 161.953 73.0939 161.958 73.302C161.964 73.5428 161.724 73.7061 161.514 73.8211C159.096 75.1412 156.563 76.2471 153.952 77.1231C153.181 77.382 152.339 77.6204 151.568 77.359C150.863 77.1195 150.577 76.3717 150.297 75.6808C150.018 74.9899 149.095 73.2197 147.861 71.6722C147.443 71.1483 149.506 72.276 149.44 71.6093C149.298 70.173 150.512 70.0182 151.624 70.2432C153.036 70.5288 154.174 70.5179 155.621 70.3061V70.3049Z" fill="#DBA76E"/>
<path d="M157.828 71.97C158.749 71.7026 161.228 71.2755 160.997 70.6826C161.244 70.7576 161.396 70.904 161.458 71.0262C161.264 71.9906 159.498 72.0402 158.848 72.2265C158.29 72.0596 158.185 72.0789 157.828 71.9712V71.97Z" fill="#DBA76E"/>
<path d="M150.631 76.2862C150.81 76.5246 151.032 76.717 151.329 76.8174C152.1 77.0788 152.942 76.8404 153.713 76.5815C156.324 75.7054 158.858 74.5995 161.275 73.2795C161.457 73.1802 161.657 73.0459 161.707 72.8584C161.869 72.9625 162.025 73.104 162.03 73.2916C162.036 73.5324 161.797 73.6957 161.586 73.8106C159.169 75.1307 156.635 76.2366 154.024 77.1126C153.253 77.3716 152.411 77.6099 151.64 77.3486C151.144 77.1804 150.856 76.7605 150.631 76.2862Z" fill="#DBA76E"/>
<path d="M148.533 28.6041C144.365 38.9069 135.184 48.0264 124.461 50.9497C121.258 51.8233 117.89 51.274 114.628 50.6617C111.365 50.0495 108.228 48.3035 106.411 45.5254C104.719 42.941 104.304 39.5627 105.319 36.6455C105.663 35.6594 106.171 34.7108 106.927 33.9896C107.831 33.1269 108.603 33.358 109.803 33.0108C115.053 31.4911 121.13 32.8002 126.255 30.9018C129.243 29.7959 139.348 18.9667 141.717 16.6496C142.637 15.7494 143.933 16.4899 144.97 15.7276C146.753 14.4172 148.971 13.7118 151.184 13.7505C154.139 13.8026 157.656 16.8856 154.564 19.395C153.215 20.49 152.025 21.1108 151.079 22.674C149.961 24.5204 149.339 26.6161 148.533 28.6053V28.6041Z" fill="#FBC479"/>
<path d="M85.1147 64.5712C84.6477 65.734 84.0524 66.8944 83.9737 68.0995C83.8201 70.4529 85.6217 72.3731 87.2914 74.0816C91.1343 78.0151 94.7823 82.1012 98.2259 86.324C98.6869 86.8903 99.1503 87.6562 98.6869 88.2866C98.584 88.4257 98.4437 88.5419 98.2949 88.6435C97.0619 89.4832 95.3038 89.3041 94.1011 88.5987C92.8984 87.8933 92.1144 86.7717 91.3267 85.7009C87.5673 80.5875 83.013 75.9631 77.8162 71.9835C76.8337 71.2321 75.7411 70.3113 75.9081 69.1147C75.9916 68.5206 76.3812 67.9797 76.6486 67.4171C77.9566 64.6583 76.1973 61.7375 74.1512 59.6055C72.1052 57.4736 69.6066 55.4094 69.1976 52.5551C68.7124 49.1672 71.5752 45.6498 75.2027 44.1156C77.5924 43.1052 80.42 42.8245 82.6669 43.7731C86.5037 45.3945 89.5952 49.4237 89.4706 52.9616C89.2492 59.199 86.7167 60.5783 85.1147 64.57V64.5712Z" fill="#DBA76E"/>
<path d="M146.2 14.4129C145.5 13.7438 145.126 12.8121 144.748 11.9191C144.371 11.0262 143.938 10.1078 143.167 9.51977C142.396 8.93294 141.186 8.8071 140.507 9.4992C139.797 10.2252 139.988 11.4606 140.524 12.3233C141.558 13.987 143.575 14.8969 144.449 16.6489L146.2 14.4117V14.4129Z" fill="#FBC479"/>
<path d="M144.024 12.1354C143.806 11.7155 143.585 11.2908 143.279 10.9472C142.974 10.6035 142.569 10.3458 142.154 10.3507C141.739 10.3555 141.333 10.6786 141.28 11.1444C141.243 11.4747 141.379 11.8171 141.575 12.0821C141.771 12.3459 142.024 12.5467 142.269 12.7524C142.858 13.2461 143.422 13.7809 143.955 14.3532C144.138 14.5505 144.345 14.7646 144.588 14.7743C145.741 14.8179 144.212 12.4971 144.024 12.1366V12.1354Z" fill="#EAB473"/>
<path d="M64.7536 33.1675C66.2418 30.1982 68.7223 28.2683 71.2789 26.3336C74.0292 22.9941 76.9561 19.49 79.6107 16.0476C81.4741 13.6313 83.1196 10.846 85.6884 9.36986C89.0085 7.46295 93.2144 8.24458 96.4244 10.3608C99.6345 12.477 102.041 15.7379 104.295 18.9939C105.831 21.2118 112.262 29.8751 121.728 31.8764C135.436 34.7743 129.247 50.7047 123.151 53.4477C116.841 56.2875 105.544 57.7334 95.0862 57.7322C73.446 57.7297 66.7258 50.0828 65.2944 47.8468C64.2466 46.2097 63.3936 44.3935 63.0524 42.437C62.503 39.279 63.3379 35.9903 64.7536 33.1663V33.1675Z" fill="#FBC479"/>
<path d="M127.725 71.6363C123.718 74.6673 120.172 78.3081 117.247 82.3941C116.928 82.8406 116.602 83.3052 116.139 83.5992C115.674 83.8933 115.027 83.9731 114.593 83.6368C113.867 83.0753 114.213 81.921 114.676 81.1297C115.851 79.1236 117.375 77.3486 118.892 75.5868C121.151 72.9624 123.41 70.3368 125.669 67.7124C126.735 66.4746 128.096 65.117 129.713 65.3445C130.905 65.5127 132.271 67.0469 131.688 68.2835C131.069 69.5987 128.852 70.7857 127.725 71.6375V71.6363Z" fill="#FBC479"/>
<path d="M118.742 85.5725C119.551 87.5339 120.6 91.6707 119.594 91.7397C119.254 91.6381 118.207 90.0954 117.665 89.1685C117.987 90.0639 118.012 91.0633 117.738 91.9744C117.678 92.1729 117.578 92.3931 117.378 92.4487C117.147 92.5129 116.929 92.3205 116.766 92.145C114.898 90.122 113.207 87.9331 111.723 85.6136C111.284 84.9288 110.848 84.1702 110.913 83.3595C110.974 82.6166 111.461 81.962 112.063 81.5227C112.665 81.0835 113.377 80.8258 114.079 80.5753C114.71 80.3491 115.341 80.1228 115.972 79.8966C117.331 79.4102 117.776 80.5499 117.83 81.6825C117.896 83.1211 118.184 84.2234 118.742 85.5749V85.5725Z" fill="#FBC479"/>
<path d="M118.17 88.6526C118.66 89.4911 119.564 90.8341 119.982 91.1572C119.936 91.5057 119.814 91.7235 119.59 91.738C119.379 91.6751 118.892 91.0532 118.425 90.3683C118.451 89.7863 118.366 89.1995 118.169 88.6514L118.17 88.6526Z" fill="#D3A266"/>
<path d="M111.418 82.8425C111.352 83.6532 111.788 84.4118 112.228 85.0967C113.714 87.4162 115.403 89.6038 117.271 91.6281C117.401 91.7684 117.566 91.9173 117.745 91.9402C117.741 91.9511 117.739 91.962 117.735 91.9729C117.676 92.1713 117.576 92.3916 117.376 92.4472C117.145 92.5113 116.927 92.319 116.764 92.1435C114.896 90.1204 113.205 87.9316 111.721 85.6121C111.281 84.9273 110.846 84.1686 110.911 83.358C110.967 82.6731 111.386 82.0645 111.922 81.6289C111.646 81.9834 111.455 82.3972 111.418 82.8437V82.8425Z" fill="#D3A266"/>
<path d="M99.0364 84.4428C101.157 84.4573 105.419 84.974 104.866 85.9057C104.539 86.3449 103.049 86.4453 101.934 86.8289C102.884 86.8797 103.816 87.2427 104.549 87.8488C104.709 87.9807 104.873 88.1586 104.847 88.3643C104.816 88.6027 104.555 88.7285 104.329 88.8108C101.739 89.7497 99.0679 90.4599 96.3539 90.9306C95.5529 91.0698 94.6841 91.1787 93.9618 90.8036C93.2999 90.46 92.8849 89.757 92.7131 89.0322C92.5413 88.3074 91.6786 86.4441 91.7185 85.6999C91.7548 85.0308 92.6925 85.4676 92.7276 84.7985C92.8051 83.3575 94.0283 83.3889 95.0931 83.7785C96.4458 84.2746 97.5723 84.4355 99.0352 84.4452L99.0364 84.4428Z" fill="#DBA76E"/>
<path d="M102.044 86.7914C101.7 86.6861 101.344 86.6219 100.985 86.6038C102.099 86.2202 103.59 86.1198 103.916 85.6806C104.121 85.3358 103.665 85.0478 102.901 84.8203C104.189 85.0684 105.146 85.4338 104.865 85.9057C104.549 86.3304 103.144 86.438 102.044 86.7914Z" fill="#B78B5E"/>
<path d="M95.4044 90.7044C98.1184 90.2337 100.79 89.5234 103.379 88.5845C103.606 88.5022 103.866 88.3764 103.897 88.138C103.924 87.9323 103.759 87.7545 103.6 87.6226C103.197 87.2898 102.733 87.0309 102.241 86.8555C103.083 86.9607 103.894 87.3068 104.548 87.8476C104.708 87.9795 104.872 88.1574 104.846 88.3631C104.816 88.6014 104.554 88.7273 104.328 88.8096C101.739 89.7485 99.067 90.4587 96.353 90.9294C95.5726 91.0649 94.728 91.1702 94.0178 90.829C94.4752 90.852 94.9507 90.783 95.4044 90.7044Z" fill="#B78B5E"/>
<path d="M140.65 20.6269C140.761 20.0728 149.145 23.8031 150.13 25.4111C149.743 26.1649 149.437 26.949 149.036 27.7633C148.886 28.0694 148.533 28.603 148.383 28.9684C147.64 29.1184 146.988 29.0059 146.233 28.7615C144.614 28.2388 143.514 27.7173 142.431 26.4771C140.356 24.0995 140.328 22.2156 140.649 20.6257L140.65 20.6269Z" fill="#EAB473"/>
<path d="M155.76 12.7618C157.922 13.2203 165.127 13.0159 167.816 14.9663C169.376 16.0964 170.605 20.3277 169.682 22.018C168.759 23.7083 165.705 24.2322 163.828 23.7966C163.204 23.6514 162.618 23.3744 162.005 23.188C159.924 22.5564 157.663 23.0162 155.62 23.7604C153.576 24.5033 152.308 26.0024 150.2 26.5421C148.094 27.0829 145.033 26.605 143.223 25.3986C141.276 24.1016 140.357 21.5473 140.745 19.2399C141.13 16.9325 142.688 14.9155 144.67 13.6729C148.083 11.5348 151.248 11.8047 155.76 12.7618Z" fill="#FBC479"/>
<path d="M152.446 12.6896C151.841 12.0387 151.556 11.1663 151.262 10.3302C150.968 9.4941 150.627 8.63019 149.953 8.0494C149.279 7.46862 148.174 7.28229 147.507 7.87397C146.809 8.49347 146.911 9.63205 147.351 10.45C148.201 12.0278 150.002 12.9776 150.7 14.6268L152.446 12.6896Z" fill="#FBC479"/>
<path d="M153.715 12.4217C152.721 12.4374 151.728 12.4943 150.74 12.5923C151.176 12.9855 151.515 13.4865 151.718 14.037C151.187 13.7188 150.58 13.53 149.963 13.4901C150.055 13.8615 150.147 14.233 150.239 14.6033C149.792 14.2754 149.317 13.9874 148.819 13.7442C147.565 14.8513 146.852 16.5465 146.938 18.2186C146.174 17.4067 145.656 16.3662 145.469 15.2675C144.64 16.129 143.91 17.0861 143.298 18.1134C143.204 17.4793 143.109 16.8453 143.016 16.2113C141.731 17.7891 139.441 17.9984 137.408 18.0855C138.564 17.6512 139.671 17.0909 140.705 16.4182C140.054 16.5077 139.367 16.2597 138.922 15.7769C139.609 15.8265 140.305 15.7588 140.969 15.5773C140.644 15.1574 140.319 14.7364 139.994 14.3165C141.177 14.9299 142.71 14.792 143.767 13.9789C144.823 13.1658 145.346 11.7175 145.055 10.4168C145.509 10.8911 145.963 11.3642 146.416 11.8385C146.484 11.4561 146.552 11.0738 146.62 10.6914C146.843 10.9564 147.066 11.2214 147.29 11.4864C148.455 11.1077 149.498 10.3587 150.228 9.375C150.317 9.86383 150.407 10.3527 150.498 10.8415C150.948 10.4531 151.456 10.1324 152 9.89407C151.819 9.97392 151.704 11.4356 151.854 11.6618C152.155 12.118 153.226 12.1833 153.715 12.4229V12.4217Z" fill="#D3A266"/>
<path d="M153.396 15.9383C153.521 15.3503 153.125 14.6546 152.526 14.5977C152.238 14.5711 151.956 14.6836 151.691 14.7998C151.242 14.9982 150.8 15.2136 150.368 15.4459C150.014 15.6371 149.659 15.8452 149.391 16.1452C149.122 16.4453 148.95 16.8567 149.024 17.2524C149.108 17.7049 149.508 18.057 149.953 18.1707C151.109 18.466 153.142 17.1253 153.396 15.9371V15.9383Z" fill="#D3A266"/>
<path d="M149.432 17.1724C149.489 17.0659 149.564 16.9715 149.653 16.8893C149.799 16.6993 150.145 16.5468 150.292 16.5117C151.483 16.2286 152.675 15.9455 153.865 15.6611C153.75 15.9975 153.444 16.2274 153.14 16.4125C152.828 16.6025 152.499 16.7658 152.16 16.9026C152.631 17.5281 151.184 18.2444 150.623 18.3872C150.314 18.4658 149.967 18.4973 149.693 18.3327C149.318 18.1077 149.226 17.5584 149.432 17.1724Z" fill="#674E33"/>
<path d="M168.084 16.9208C168.176 17.0842 168.259 17.2535 168.311 17.435C168.374 17.6528 168.39 17.8839 168.357 18.1078C168.326 18.3304 168.244 18.5494 168.094 18.7164C167.944 18.8834 167.72 18.991 167.496 18.9693C167.272 18.9475 167.062 18.7817 167.018 18.5615C166.983 18.3836 167.056 18.2009 167.154 18.0497C167.252 17.8972 167.377 17.7629 167.468 17.6068C167.825 16.9934 167.479 16.5348 167.184 16.0303C167.581 16.1247 167.893 16.5844 168.083 16.9208H168.084Z" fill="#674E33"/>
<path d="M166.404 21.2694C165.469 21.1605 164.57 20.8508 163.641 20.6971C162.837 20.564 162.018 20.5483 161.205 20.5955C160.604 20.6306 159.989 20.7056 159.457 20.9875C160.369 20.783 161.322 20.875 162.236 21.0698C163.149 21.2646 164.039 21.561 164.949 21.7716C166.335 22.0922 167.768 22.212 169.188 22.1261C169.384 22.114 169.555 22.1515 169.704 22.0245C169.765 21.9676 169.831 21.9059 169.915 21.4558C169.954 21.2489 169.994 20.6439 169.994 20.6439C169.788 20.8036 169.536 20.8726 169.418 20.9149C169.221 20.9863 169.021 21.0492 168.818 21.1025C168.033 21.3069 167.209 21.365 166.402 21.2707L166.404 21.2694Z" fill="#EAB473"/>
<path d="M96.0858 58.0658C87.6197 58.0658 81.4368 56.8945 76.9611 55.3349C77.7718 53.0783 78.6248 50.8374 79.5178 48.6123C82.9154 51.6058 87.3741 53.1158 91.8147 54.0076C95.3103 54.7093 98.8736 55.0675 102.438 55.0844C105.819 55.1001 109.454 54.0245 112.764 54.2749C114.284 54.3899 115.384 55.1715 115.855 56.2653C109.965 57.4608 102.851 58.0658 96.0858 58.0658Z" fill="#EAB473"/>
<path opacity="0.38" d="M163.225 14.2439C163.808 14.3177 164.423 14.4036 164.888 14.7642C165.016 14.8634 165.132 14.9844 165.19 15.1345C165.297 15.4115 165.181 15.7418 164.961 15.9427C164.741 16.1436 164.437 16.2307 164.141 16.2488C163.179 16.3093 162.311 15.7346 161.434 15.3353C159.926 14.6493 158.249 14.4569 156.612 14.2016C156.419 14.1713 156.218 14.1374 156.059 14.0237C155.9 13.9112 155.796 13.6934 155.874 13.5143C155.961 13.3135 156.215 13.2566 156.433 13.2396C157.529 13.1586 158.455 13.6377 159.511 13.772C160.749 13.9281 161.988 14.0854 163.226 14.2427L163.225 14.2439Z" fill="white"/>
<path opacity="0.38" d="M104.679 25.05C105.018 25.7287 105.364 26.4305 105.412 27.1868C105.461 27.9442 105.134 28.7779 104.446 29.0961C103.914 29.3417 103.269 29.2316 102.77 28.9291C102.27 28.6254 101.897 28.1511 101.589 27.6538C99.9578 25.0209 99.8319 21.4902 97.5996 19.3426C95.222 17.0557 97.7024 14.2486 100.073 16.51C102.22 18.5597 103.367 22.4243 104.679 25.0487V25.05Z" fill="white"/>
<path d="M88.3232 44.8276C88.5906 46.853 88.9136 48.9257 88.3861 50.8992C87.8573 52.8726 86.5615 54.7093 84.6909 55.5333C84.1536 55.7705 83.5486 55.9217 82.9775 55.7838C81.9539 55.5357 81.3441 54.4008 81.3586 53.3481C81.3719 52.2955 81.8632 51.313 82.3726 50.391C83.4434 48.455 84.6558 46.5796 85.4096 44.4996C86.0388 42.7646 84.0109 39.7106 84.0919 37.9404C85.3999 38.0384 87.9033 41.6538 88.322 44.8276H88.3232Z" fill="#EAB473"/>
<path d="M36.7119 73.1335C35.6302 74.9582 33.7535 78.0049 33.0518 77.2995C32.6839 76.3617 33.5321 75.2026 33.9483 74.2128C33.4256 75.0078 32.6428 75.6297 31.7498 75.9576C31.555 76.029 31.3191 76.081 31.1545 75.9552C30.9646 75.8088 30.9863 75.5196 31.0299 75.2837C31.5248 72.5745 32.258 69.909 33.2187 67.3269C33.5031 66.5646 33.9677 65.9088 34.534 65.3256C35.3519 64.4835 36.655 64.5162 37.3677 64.7328C38.0804 64.9506 38.0404 65.7721 38.6624 66.1823C39.2226 66.5513 41.599 67.5193 40.5802 68.5671C38.689 70.5116 37.4572 71.8764 36.7119 73.1348V73.1335Z" fill="#FBC479"/>
<path d="M33.897 66.599C32.9363 69.1798 32.2019 71.8454 31.7082 74.5557C31.6647 74.7916 31.6429 75.0808 31.8328 75.2272C31.9974 75.3543 32.2333 75.301 32.4281 75.2296C32.9303 75.0457 33.3973 74.7686 33.8027 74.4202C33.2848 75.1159 32.5637 75.658 31.7506 75.9568C31.5558 76.0282 31.3198 76.0802 31.1553 75.9544C30.9653 75.808 30.9871 75.5188 31.0306 75.2829C31.5255 72.5738 32.2587 69.9082 33.2195 67.3261C33.5038 66.5639 33.9684 65.9081 34.5347 65.3249C34.5964 65.2607 34.6617 65.2039 34.7295 65.1494C34.3822 65.5886 34.0955 66.0678 33.897 66.599Z" fill="#D3A266"/>
<path d="M33.8937 74.3374C34.172 74.0845 34.42 73.7978 34.627 73.4844C34.2107 74.4741 33.3625 75.6333 33.7304 76.571C33.9324 76.7743 34.2325 76.6654 34.5822 76.3653C33.9506 77.1494 33.3771 77.6237 33.0528 77.2982C32.7007 76.4004 33.4642 75.2993 33.8949 74.3374H33.8937Z" fill="#D3A266"/>
<path d="M79.4589 55.3338C71.6401 58.0756 62.4698 56.4748 58.3475 54.355C56.6354 53.4741 54.9196 52.0948 53.0285 52.4553C51.1796 52.8074 50.0798 54.6599 49.1554 56.2994C47.6018 59.0545 45.8848 61.7164 44.0154 64.2682C43.0426 65.5968 42.0275 66.8939 40.9603 68.1474C40.0274 69.2424 38.5924 70.4027 37.3122 69.7457C36.3697 69.2617 36.1119 67.9659 36.4435 66.9592C36.775 65.9525 37.5385 65.1588 38.2415 64.365C41.5543 60.6262 43.9573 56.1832 46.2188 51.7281C47.1154 49.9604 48.0071 48.166 49.2703 46.639C50.5335 45.1121 52.2287 43.8525 54.1803 43.5076C55.0999 43.3455 56.0461 43.3891 56.9705 43.2548C60.0027 42.8131 65.2019 35.4456 67.2516 33.1673C69.3001 30.8889 71.2445 30.2331 74.0806 29.0752C78.0009 27.4744 80.1535 32.2804 82.721 35.6477C84.807 38.3834 87.3152 44.3679 86.5082 47.6735C85.6515 51.18 82.7791 54.1711 79.4601 55.3351L79.4589 55.3338Z" fill="#FBC479"/>
<path d="M108.4 47.6738C108.194 48.326 107.987 48.9794 107.78 49.6316C107.596 50.2111 107.412 50.7955 107.338 51.3993C107.199 52.5476 107.465 53.7007 107.731 54.8259C107.794 55.0946 107.863 55.3728 108.036 55.587C108.353 55.9766 108.92 56.0407 109.422 56.0202C109.858 56.0032 110.298 55.9439 110.712 55.8024C111.301 55.6015 112.41 55.0292 112.297 54.2536C112.208 53.6535 110.996 53.0013 110.607 52.5754C109.382 51.2287 108.586 49.4876 108.399 47.6738H108.4Z" fill="#EAB473"/>
<path d="M54.9185 33.9425C51.9541 33.346 49.0889 32.3418 46.1753 31.5323C45.24 31.2722 44.1885 31.0447 43.3415 31.519C47.0888 33.2238 51.124 34.1857 55.129 35.138C58.2386 35.8773 61.5781 36.6045 64.5595 35.4502C64.9745 35.2892 65.3919 35.0811 65.6569 34.7254C66.3611 33.7804 65.3871 32.9988 64.4361 33.1972C63.6665 33.3569 63.07 34.0575 62.2291 34.2438C59.8914 34.7617 57.2319 34.4084 54.9185 33.9438V33.9425Z" fill="#FBC479"/>
<path d="M44.3457 29.4489C43.3294 29.0968 42.2005 29.0036 41.1768 29.3352C40.7449 29.4743 40.3323 29.6885 39.881 29.7405C39.4115 29.795 38.9202 29.6691 38.4701 29.8143C38.8852 30.1035 39.3014 30.3915 39.7164 30.6807C38.7847 30.8779 37.8119 30.8803 36.8803 30.6843C38.0672 31.887 39.7031 32.6372 41.3898 32.7509C40.7074 32.93 40.0056 33.0365 39.3002 33.0679C41.2204 34.2743 43.6887 34.5659 45.8364 33.8375C49.4881 32.6009 46.5575 30.2148 44.3457 29.4489Z" fill="#D3A266"/>
<path d="M131.751 63.4783C132.463 64.3628 132.844 65.5534 132.646 66.7101C132.449 67.8669 131.628 68.9534 130.525 69.3273C129.101 69.8113 127.602 69.0829 126.464 68.1669C125.411 67.32 124.443 66.1584 124.462 64.7657C124.52 60.4534 129.989 61.2883 131.752 63.4783H131.751Z" fill="#FBC479"/>
<path d="M128.503 61.755C129.396 62.9372 129.123 64.181 128.503 65.5253C128.381 65.7903 128.186 66.0395 127.912 66.1351C127.513 66.273 127.004 67.3245 126.64 67.1103C121.74 64.2185 117.051 59.8372 112.424 56.5244C111.562 55.9073 110.673 55.2454 110.2 54.2956C109.33 52.5496 108.678 48.7891 109.83 47.2766C111.364 45.2596 112.039 43.9722 113.646 45.3334C118.081 49.0867 125.021 57.1451 128.503 61.755Z" fill="#FBC479"/>
<path opacity="0.38" d="M127.897 63.4293C128.504 63.2514 129.136 63.0724 129.76 63.1704C130.386 63.2672 131.002 63.7257 131.065 64.3561C131.093 64.6356 131.012 64.9127 130.918 65.1777C130.795 65.5298 130.609 65.9146 130.252 66.0259C129.781 66.1735 129.339 65.773 128.917 65.5189C128.548 65.2975 128.118 65.1753 127.688 65.1692C127.434 65.1656 127.143 65.1886 126.968 65.0047C126.79 64.8183 126.83 64.5146 126.93 64.2787C127.151 63.7608 127.614 63.3519 128.155 63.197L127.896 63.4293H127.897Z" fill="white"/>
<path d="M138.806 48.1583C137.171 50.5637 135.132 52.8856 132.383 53.8367C132.603 53.4035 132.824 52.9691 133.044 52.536C130.265 54.1089 127.236 55.2414 124.106 55.8779C124.641 55.5125 125.053 54.9716 125.264 54.3594C123.405 55.6093 121.317 56.5143 119.134 57.0189C119.284 56.7757 119.434 56.5313 119.583 56.2881C118.817 56.6341 118.021 56.9124 117.207 57.1205C118.244 56.4369 119.14 55.5427 119.826 54.5082C118.507 55.2572 117.049 55.7605 115.55 55.9831C116.673 54.9898 117.664 53.8463 118.488 52.594C117.844 52.8203 117.164 52.9389 116.482 52.9437C117.22 52.49 117.959 52.035 118.699 51.5801C118.273 51.6853 117.801 51.5898 117.449 51.3272C119.849 51.061 122.126 49.4929 124.475 48.9303C131.55 47.2339 135.699 44.5236 141.272 38.7762C141.988 38.0382 144.828 35.4258 146.404 33.0107C144.566 38.4931 141.731 43.8484 138.803 48.1607L138.806 48.1583Z" fill="#EDB674"/>
<path d="M98.3498 12.2329C98.3922 13.4816 97.6505 14.654 96.6801 15.4393C95.7085 16.2258 94.5239 16.6916 93.3599 17.1466C93.4229 16.9651 93.4858 16.7848 93.5475 16.6033C89.7663 17.9718 85.6621 18.44 81.6692 17.9596C81.8955 17.7975 82.1206 17.6354 82.3468 17.4732C79.4211 17.8181 76.4519 17.7939 73.531 17.4006C74.453 17.2095 75.3544 16.9142 76.2111 16.5222C74.5801 16.325 72.9865 15.8168 71.543 15.0315C73.2213 14.988 74.9515 14.9323 76.4845 14.2463C78.654 13.2759 80.0927 11.208 81.9318 9.70284C84.5707 7.54427 88.1486 6.64284 91.5075 7.12803C94.2045 7.51764 98.2373 8.90427 98.351 12.2305L98.3498 12.2329Z" fill="#EDB674"/>
<path d="M193 50.671C192.113 50.3783 175.715 43.527 154.464 49.9659C148.939 51.6377 143.085 53.753 137.427 55.8018C135.897 56.3561 134.358 56.9104 132.824 57.4603C131.964 57.7663 130.443 58.3649 130.318 59.2208L131.711 62.5644C134.562 61.5711 136.008 61.0345 138.939 59.9702C144.544 57.9436 150.345 55.8461 155.755 54.2098C170.579 49.7176 183.094 52.2453 188.464 53.8107L189.674 53.0346L189.085 52.0058H190.712L189.085 50.6755H193V50.671Z" fill="#407BFF"/>
<path d="M130.846 63.5355C130.846 63.5355 138.349 63.8814 140.748 65.2339L140.823 61.5976C140.823 61.5976 140.788 61.3759 140.105 61.3626C137.79 61.3138 132.713 60.8615 131.515 60.2406C128.792 58.8216 132.752 57.4912 132.752 57.4912C132.752 57.4912 130.247 58.2761 130.318 59.2251C130.318 59.2251 131.063 61.9523 130.841 63.5399L130.846 63.5355Z" fill="#407BFF"/>
<path opacity="0.3" d="M130.846 63.5355C130.846 63.5355 138.349 63.8814 140.748 65.2339L140.823 61.5976C140.823 61.5976 140.788 61.3759 140.105 61.3626C137.79 61.3138 132.713 60.8615 131.515 60.2406C128.792 58.8216 132.752 57.4912 132.752 57.4912C132.752 57.4912 130.247 58.2761 130.318 59.2251C130.318 59.2251 131.063 61.9523 130.841 63.5399L130.846 63.5355Z" fill="black"/>
<path d="M141.489 65.3674C141.568 65.731 141.36 66.1035 141.001 66.2055C138.859 66.8263 136.535 67.1013 134.052 67.1013C123.977 67.1013 111.343 62.5337 98.1367 57.7533C92.5314 55.7267 86.7311 53.6292 81.3209 51.9928C66.4963 47.5007 53.9821 50.0283 48.6119 51.5937L47.4013 50.8177L47.9911 49.7889H46.3636L47.9911 48.4585H44C44.8869 48.1614 61.3257 41.3101 82.5715 47.749C88.0969 49.4208 93.9682 51.5361 99.6267 53.5848C114.97 59.1369 132.11 63.8995 140.247 61.7931C140.766 61.6601 140.717 61.5182 140.584 61.4428C140.495 61.394 140.371 61.3807 140.371 61.3807C140.766 61.4029 140.837 61.5581 140.841 61.7C140.868 62.4894 141.267 64.374 141.489 65.3674Z" fill="#407BFF"/>
</svg>
