<svg width="200" height="100" viewBox="0 0 200 100" fill="none" xmlns="http://www.w3.org/2000/svg">
<path d="M125.394 87.745C124.64 88.0909 123.776 88.0517 122.948 88.035C120.09 87.9756 117.224 88.2573 114.433 88.8741C113.277 89.1296 112.122 89.4434 110.94 89.4564C109.757 89.4695 108.514 89.1403 107.694 88.2882C106.874 87.436 106.626 85.9861 107.351 85.052C107.868 84.3853 108.73 84.1048 109.549 83.9016C112.872 83.0815 116.367 82.996 119.732 83.6116C121.433 83.923 123.101 84.4114 124.696 85.0758C125.143 85.2623 126.343 85.5535 126.508 86.0432C126.734 86.7099 125.912 87.5085 125.394 87.7474V87.745Z" fill="#D3A266"/>
<path d="M126.697 31.469C126.092 30.7345 125.838 29.7813 125.573 28.8674C125.309 27.9523 124.995 27.0051 124.312 26.3431C123.629 25.68 122.464 25.4161 121.721 26.0116C120.943 26.6355 120.984 27.8632 121.406 28.7676C122.219 30.5111 124.079 31.6353 124.727 33.4466L126.697 31.4701V31.469Z" fill="#FBC479"/>
<path d="M124.839 28.9947C124.676 28.5598 124.51 28.1189 124.252 27.7481C123.994 27.3773 123.629 27.0778 123.224 27.035C122.819 26.991 122.386 27.2584 122.279 27.7076C122.204 28.025 122.297 28.3756 122.457 28.656C122.618 28.9365 122.84 29.1623 123.055 29.3905C123.572 29.9408 124.059 30.529 124.512 31.1494C124.668 31.3622 124.844 31.5963 125.08 31.6343C126.2 31.8126 124.98 29.3691 124.84 28.9959L124.839 28.9947Z" fill="#EAB473"/>
<path d="M132.099 44.0705C132.435 45.486 133.068 46.8111 133.668 48.1362C135.332 51.8121 136.565 55.6794 137.081 59.6809C137.698 64.4657 137.159 78.4419 124.35 80.8926C117.214 82.2581 116.422 76.8779 110.552 73.3506C109.674 72.8229 108.827 72.2156 108.171 71.4288C107.083 70.1251 106.591 68.403 106.52 66.7071C106.459 65.2714 106.743 63.7027 107.813 62.7424C109.15 61.5421 109.256 60.7648 111.049 60.8825C114.191 61.0881 119.689 61.693 121.677 59.2507C122.922 57.7223 123.273 55.6318 123.131 53.6661C122.988 51.7004 122.404 49.7989 121.964 47.8783C121.506 45.8782 121.204 43.8423 121.063 41.7958C120.99 40.7464 120.961 39.678 121.204 38.6547C121.821 36.0639 124.392 34.0471 127.05 34.179C129.147 34.2836 131.017 35.743 131.813 37.6516C132.684 39.7421 131.581 41.8802 132.1 44.0693L132.099 44.0705Z" fill="#FBC479"/>
<path d="M67.1228 62.4059C68.5846 59.4894 71.0209 57.5938 73.5321 55.6934C76.2335 52.4133 79.1084 48.9715 81.7159 45.5903C83.5461 43.2158 85.1624 40.4812 87.6855 39.0312C90.9466 37.1582 95.0777 37.926 98.2307 40.0046C101.384 42.0832 103.748 45.2861 105.962 48.4842C107.47 50.6627 110.115 59.8174 119.224 60.6838C130.217 61.7296 130.471 79.6314 124.483 82.3268C118.285 85.1161 107.188 86.5363 96.9151 86.5351C75.6595 86.534 69.0588 79.0217 67.6528 76.8254C66.6236 75.2174 65.7858 73.4336 65.4506 71.5118C64.9111 68.41 65.7311 65.1797 67.1216 62.4059H67.1228Z" fill="#FBC479"/>
<path d="M102.349 43.038C101.797 42.7397 101.637 42.6553 101.085 42.357C101.703 43.0451 101.723 43.5229 101.87 44.4356C100.71 43.2698 99.3947 42.2572 97.9721 41.4336C98.0149 42.6363 97.94 43.8426 97.7487 45.0299C97.013 44.173 96.3629 43.2436 95.8115 42.2584C94.604 43.883 93.6936 45.7287 93.1422 47.6766C92.0963 46.0317 91.4332 44.1445 91.2217 42.2073C90.511 42.571 89.8561 43.0428 89.2856 43.6002C89.2238 42.9929 89.2512 42.3784 89.3641 41.7782C88.0972 42.0159 86.9004 42.6137 85.9484 43.4825C86.135 42.8027 86.4096 42.1467 86.7649 41.537C85.5456 41.6642 84.3702 42.1859 83.4574 43.0047C84.5092 40.7288 86.431 38.8677 88.7401 37.8896C91.2062 36.845 94.2653 36.637 96.5757 37.9669C98.5438 39.0995 101.634 41.8198 102.352 43.038H102.349Z" fill="#D3A266"/>
<path d="M122.156 40.4178C122.055 39.8723 130.528 40.4582 132.015 41.5611C131.939 42.3894 131.899 43.2261 132.098 44.0687C132.176 44.3956 132.269 44.7164 132.374 45.0349C131.752 45.4438 131.003 45.729 130.225 45.7825C128.558 45.899 127.365 45.8288 125.924 45.0956C123.162 43.6896 122.446 41.983 122.156 40.4178Z" fill="#EAB473"/>
<path d="M136.212 30.9796C138.267 31.6808 145.316 32.325 147.71 34.5426C149.099 35.8273 149.802 40.0975 148.704 41.6377C147.606 43.178 144.566 43.3301 142.787 42.6871C142.195 42.4732 141.656 42.1333 141.079 41.879C139.123 41.0197 136.866 41.2027 134.785 41.6876C132.704 42.1737 131.292 43.4858 129.174 43.7651C127.056 44.0455 124.128 43.2207 122.503 41.8326C120.756 40.3387 120.161 37.7408 120.808 35.5362C121.456 33.3316 123.21 31.5465 125.289 30.5672C128.867 28.882 131.923 29.5154 136.211 30.9784L136.212 30.9796Z" fill="#FBC479"/>
<path d="M132.989 30.5224C132.476 29.8164 132.299 28.9322 132.11 28.0824C131.921 27.2327 131.689 26.3497 131.1 25.7043C130.51 25.059 129.455 24.7476 128.736 25.2468C127.982 25.7697 127.948 26.8904 128.282 27.7402C128.926 29.3779 130.571 30.5152 131.058 32.2052L132.988 30.5212L132.989 30.5224Z" fill="#FBC479"/>
<path d="M134.259 30.4117C133.288 30.3106 132.312 30.25 131.336 30.2286C131.716 30.6636 131.988 31.1913 132.122 31.7522C131.642 31.3802 131.071 31.1235 130.474 31.013C130.52 31.3862 130.566 31.7582 130.611 32.1314C130.216 31.7594 129.785 31.423 129.328 31.1271C127.974 32.06 127.081 33.63 126.969 35.2701C126.32 34.3882 125.937 33.3139 125.883 32.2193C124.973 32.9621 124.15 33.8106 123.432 34.74C123.414 34.1113 123.397 33.4814 123.38 32.8527C121.942 34.2409 119.684 34.1767 117.69 34.0234C118.868 33.7358 120.014 33.3186 121.101 32.7838C120.456 32.7945 119.814 32.4724 119.438 31.9495C120.102 32.0791 120.789 32.0945 121.458 31.9947C121.19 31.5466 120.922 31.0986 120.655 30.6505C121.737 31.3874 123.248 31.4325 124.373 30.7634C125.499 30.0943 126.178 28.7431 126.048 27.4405C126.435 27.9563 126.821 28.4709 127.209 28.9867C127.319 28.6218 127.431 28.257 127.542 27.8909C127.728 28.175 127.915 28.4602 128.101 28.7442C129.283 28.5125 130.387 27.904 131.214 27.0293C131.244 27.5166 131.275 28.0038 131.304 28.4911C131.788 28.1655 132.322 27.9123 132.88 27.7436C132.694 27.7994 132.411 29.2125 132.53 29.4502C132.77 29.9303 133.807 30.1193 134.255 30.4105L134.259 30.4117Z" fill="#D3A266"/>
<path d="M133.535 33.8003C133.726 33.2417 133.421 32.5168 132.844 32.3908C132.566 32.3302 132.279 32.4075 132.006 32.4906C131.545 32.6309 131.09 32.7901 130.641 32.966C130.272 33.111 129.903 33.2726 129.606 33.5341C129.309 33.7956 129.092 34.1759 129.118 34.5716C129.147 35.0221 129.495 35.4131 129.917 35.5771C131.01 36.0002 133.149 34.9317 133.536 33.8015L133.535 33.8003Z" fill="#D3A266"/>
<path d="M129.524 34.541C129.591 34.4436 129.676 34.3616 129.773 34.2915C129.937 34.1239 130.293 34.0145 130.44 33.9979C131.634 33.8612 132.83 33.7246 134.024 33.5879C133.872 33.9016 133.547 34.0906 133.229 34.2356C132.903 34.3842 132.563 34.5054 132.216 34.5993C132.602 35.2636 131.107 35.7937 130.542 35.8662C130.232 35.9066 129.89 35.8959 129.643 35.7045C129.304 35.4407 129.278 34.8952 129.524 34.5422V34.541Z" fill="#674E33"/>
<path d="M147.635 36.3816C147.706 36.5515 147.767 36.7274 147.796 36.9092C147.832 37.1291 147.82 37.3561 147.763 37.5712C147.706 37.7839 147.6 37.9895 147.435 38.1345C147.269 38.2795 147.038 38.358 146.823 38.3116C146.608 38.2641 146.421 38.0775 146.405 37.8576C146.391 37.6805 146.483 37.5106 146.597 37.3739C146.71 37.2372 146.848 37.1208 146.956 36.9793C147.376 36.4231 147.093 35.9359 146.864 35.4082C147.241 35.5473 147.491 36.0321 147.637 36.3816H147.635Z" fill="#674E33"/>
<path d="M145.596 40.5254C144.698 40.3091 143.856 39.9026 142.968 39.6436C142.201 39.4189 141.403 39.3072 140.606 39.2597C140.015 39.224 139.407 39.2252 138.854 39.4368C139.767 39.3441 140.687 39.5449 141.555 39.842C142.424 40.1391 143.256 40.5325 144.119 40.8439C145.433 41.3193 146.817 41.6045 148.212 41.6865C148.404 41.6984 148.566 41.7543 148.726 41.6473C148.793 41.5986 148.864 41.5463 148.999 41.1172C149.06 40.92 149.171 40.334 149.171 40.334C148.951 40.466 148.697 40.5028 148.578 40.5313C148.377 40.5789 148.175 40.6157 147.971 40.643C147.18 40.75 146.37 40.7108 145.595 40.5242L145.596 40.5254Z" fill="#EAB473"/>
<path d="M97.8982 86.8626C89.5825 86.8626 83.5095 85.7122 79.1134 84.1802C79.9096 81.9638 80.7475 79.7627 81.6246 77.5771C84.9618 80.5174 89.3412 82.0006 93.7029 82.8765C97.1363 83.5658 100.636 83.9176 104.138 83.9342C107.458 83.9497 111.028 82.8931 114.28 83.1391C115.773 83.252 116.853 84.0198 117.316 85.0942C111.531 86.2683 104.543 86.8626 97.8982 86.8626Z" fill="#EAB473"/>
<path d="M137.523 71.9119C137.071 74.7321 136.225 77.6474 134.176 79.6381C134.191 79.1603 134.207 78.6826 134.222 78.2048C132.405 80.7624 130.184 83.0312 127.664 84.9018C127.988 84.3539 128.13 83.7014 128.061 83.0692C126.929 84.9553 125.449 86.631 123.718 87.9882C123.75 87.7089 123.781 87.4296 123.813 87.1503C123.275 87.7767 122.684 88.3566 122.045 88.8807C122.684 87.8408 123.108 86.6714 123.287 85.4651C122.427 86.6809 121.339 87.7351 120.098 88.5587C120.682 87.2062 121.088 85.7777 121.299 84.3206C120.821 84.7901 120.265 85.1787 119.66 85.4675C120.128 84.7556 120.595 84.0437 121.064 83.3318C120.729 83.6028 120.27 83.7145 119.847 83.6278C121.871 82.3906 123.902 81.1498 125.756 79.6714C131.342 75.2158 135.066 68.5628 136.146 61.5165C136.3 60.5182 136.701 58.5727 136.396 55.9688C138.096 60.8664 138.332 66.8574 137.523 71.9119Z" fill="#D3A266"/>
<path d="M62.0129 69.9137C60.0757 72.1659 58.463 74.6735 56.6945 77.0599C56.1265 77.8265 55.4491 78.637 54.5066 78.782C56.3808 75.1988 58.9265 72.0173 61.4543 68.8608C63.4177 66.4101 65.5652 63.8312 68.572 62.9256C68.9903 62.7996 69.4396 62.7093 69.8603 62.8246C70.9763 63.1312 70.6934 64.3256 69.8377 64.7463C69.1449 65.0874 68.2594 64.9044 67.4953 65.268C65.3715 66.2782 63.5234 68.1572 62.0117 69.9149L62.0129 69.9137Z" fill="#FBC479"/>
<path d="M56.529 79.7783C55.9538 80.6648 55.135 81.4183 54.1426 81.7796C53.7243 81.9317 53.275 82.0161 52.8947 82.2479C52.4978 82.4891 52.1935 82.8825 51.7574 83.0418C51.9047 82.5676 52.0521 82.0934 52.1995 81.618C51.358 82.0268 50.6034 82.6139 49.9996 83.327C50.1934 81.6786 51.0075 80.1098 52.2458 79.0034C51.6088 79.2767 51.0003 79.6178 50.4346 80.0195C51.1941 77.9254 52.9304 76.2105 55.034 75.4772C58.61 74.2305 57.7805 77.8494 56.529 79.7771V79.7783Z" fill="#D3A266"/>
<path opacity="0.38" d="M143.317 33.2991C143.878 33.4393 144.467 33.5962 144.879 34.0014C144.991 34.1132 145.09 34.2451 145.129 34.3984C145.202 34.6812 145.05 34.9902 144.812 35.1602C144.574 35.3301 144.268 35.3789 143.975 35.3622C143.03 35.3076 142.251 34.6468 141.443 34.1548C140.052 33.3098 138.439 32.9247 136.873 32.485C136.688 32.4327 136.496 32.3768 136.354 32.2473C136.211 32.1177 136.135 31.8943 136.232 31.7291C136.341 31.5437 136.595 31.5176 136.81 31.5271C137.889 31.5758 138.734 32.1522 139.75 32.4065C140.94 32.7048 142.128 33.0019 143.318 33.3003L143.317 33.2991Z" fill="white"/>
<path opacity="0.38" d="M106.339 54.4322C106.671 55.0989 107.011 55.7882 107.059 56.531C107.106 57.275 106.786 58.0938 106.109 58.4064C105.588 58.6476 104.954 58.5395 104.463 58.2424C103.972 57.9441 103.606 57.4782 103.303 56.9897C101.701 54.4036 101.578 50.9357 99.385 48.8262C97.0497 46.58 99.486 43.8228 101.814 46.044C103.924 48.0573 105.05 51.8532 106.339 54.431V54.4322Z" fill="white"/>
<path d="M93.512 73.6631C94.212 75.5445 94.975 77.4579 94.9013 79.4628C94.8276 81.4689 93.9874 83.5107 92.3782 84.7099C91.9147 85.0545 91.3704 85.3314 90.7928 85.3243C89.7588 85.3112 88.9269 84.3581 88.7094 83.3467C88.4919 82.3353 88.7474 81.2871 89.0339 80.2935C89.6352 78.2054 90.3852 76.1434 90.6526 73.9876C90.8748 72.1883 88.265 69.7079 87.956 67.9954C89.23 67.8028 92.4186 70.7169 93.5144 73.6631H93.512Z" fill="#EAB473"/>
<path d="M109.994 76.6553C109.791 77.2959 109.588 77.9376 109.385 78.5782C109.204 79.1475 109.022 79.7215 108.951 80.3145C108.814 81.4412 109.076 82.575 109.337 83.6803C109.399 83.9441 109.467 84.2174 109.637 84.4278C109.948 84.8105 110.504 84.8735 110.997 84.8533C111.426 84.8366 111.858 84.7784 112.264 84.6393C112.843 84.4421 113.933 83.8799 113.821 83.1193C113.734 82.5298 112.544 81.8892 112.162 81.4709C110.958 80.1482 110.176 78.438 109.993 76.6565L109.994 76.6553Z" fill="#EAB473"/>
<path d="M132.459 83.2857C133.774 83.9097 134.101 85.1171 134.171 86.5706C134.185 86.8559 134.128 87.1625 133.932 87.3705C133.647 87.6711 133.681 88.8192 133.266 88.7966C127.685 88.5019 121.612 86.8131 116.079 86.0275C115.047 85.8813 113.973 85.7078 113.13 85.0958C111.581 83.9691 109.306 80.9896 109.622 79.1499C110.044 76.6969 110.046 75.2696 112.064 75.7247C117.631 76.9821 127.334 80.8506 132.459 83.2857Z" fill="#FBC479"/>
<path d="M123.909 92.0742C117.44 91.9471 118.075 92.1871 113.056 91.7593C112.519 91.7129 111.342 91.7094 110.812 91.5763C110.281 91.4432 109.766 91.0117 109.686 90.4318C109.551 89.4632 110.584 88.8654 111.453 88.6265C113.656 88.0228 115.951 87.8576 118.231 87.6948C121.627 87.4523 125.024 87.2099 128.422 86.9674C130.024 86.8533 131.918 86.8735 132.915 88.2712C133.65 89.3004 133.577 91.4788 132.32 91.9578C130.982 92.4676 125.309 92.1004 123.91 92.0719L123.909 92.0742Z" fill="#FBC479"/>
<path d="M136.665 87.5063C136.906 88.8208 136.451 90.2731 135.415 91.1169C134.379 91.9607 131.393 92.6001 130.301 91.8311C129.674 91.389 130.634 90.1958 130.366 89.4756C129.873 88.1469 129.906 86.5662 130.71 85.398C132.692 82.5172 136.157 84.7372 136.665 87.5063Z" fill="#FBC479"/>
<path d="M122.812 87.2108C126.077 88.3267 129.627 88.4194 132.877 89.577C132.772 88.9923 132.797 87.5495 132.207 87.2096C131.879 87.0206 131.276 87.1668 130.916 87.1668C130.355 87.1668 129.793 87.1466 129.232 87.1193C128.147 87.0658 127.063 86.9814 125.976 86.9671C125.436 86.96 124.896 86.9683 124.359 87.0076C123.991 87.0337 123.134 87.3249 122.811 87.2108H122.812Z" fill="#EAB473"/>
<path d="M107.046 86.3222C106.41 86.2889 105.756 86.3151 105.167 86.5587C104.579 86.8035 104.067 87.3015 103.949 87.9278C103.834 88.5411 104.11 89.1674 104.491 89.6606C105.261 90.6565 106.456 91.2591 107.686 91.5217C108.916 91.7855 110.191 91.7392 111.445 91.6358C112.233 91.5704 113.332 91.3993 113.678 90.5638C114.067 89.6261 113.168 89.3623 112.601 88.8489C110.958 87.3621 109.327 86.441 107.046 86.321V86.3222Z" fill="#FBC479"/>
<path d="M103.949 87.8789C104.066 87.2525 104.579 86.7546 105.167 86.5098C105.327 86.4432 105.494 86.3933 105.664 86.3564C105.654 86.7772 105.784 87.2086 105.975 87.5889C106.54 88.7132 107.596 89.5344 108.753 90.03C109.909 90.5256 111.17 90.7252 112.42 90.8643C112.726 90.8987 113.079 90.9249 113.427 90.9011C112.95 91.4074 112.093 91.5334 111.446 91.5869C110.192 91.6903 108.917 91.7366 107.687 91.4728C106.456 91.2089 105.261 90.6064 104.492 89.6116C104.11 89.1184 103.835 88.4921 103.95 87.8789H103.949Z" fill="#EAB473"/>
<path d="M110.026 90.5103C111.097 90.3558 112.4 90.849 113.445 90.9049C117.359 91.114 121.281 91.0415 125.198 91.0843C127.436 91.1093 129.675 91.1711 131.908 91.3434C132.368 91.3791 132.829 91.4195 133.29 91.448C133.126 91.6762 132.913 91.8556 132.646 91.9578C131.308 92.4677 125.635 92.1005 124.236 92.0731C117.768 91.946 118.401 92.186 113.383 91.7582C112.845 91.7118 111.67 91.7083 111.14 91.5752C110.633 91.448 110.142 91.0499 110.027 90.5103H110.026Z" fill="#EAB473"/>
<path d="M87.5274 67.3688C90.7184 70.3102 92.9444 74.5851 92.4797 78.8992C92.3406 80.1911 91.952 81.4841 91.1653 82.5181C90.0457 83.9882 88.2274 84.7892 86.4031 85.0863C84.5063 85.3953 82.5584 85.223 80.6747 84.8451C74.5577 83.615 68.8079 80.0318 65.5979 74.6814C64.9633 73.6236 64.4201 72.4756 64.3132 71.2467C64.224 70.2306 64.4392 69.2097 64.7577 68.2411C65.5492 65.8357 67.0383 63.6144 69.1502 62.2168C72.22 60.1857 75.3112 60.6896 78.5082 62.0041C81.7515 63.3375 84.9294 64.9752 87.5262 67.3688H87.5274Z" fill="#FBC479"/>
<path d="M68.3609 83.2083C68.3609 80.2752 65.2851 77.9018 64.3153 71.2465C64.2583 70.8543 70.8626 73.2359 73.6566 72.057C77.7592 70.3266 82.4893 69.3235 86.6298 70.9612L91.512 81.1951C90.9356 83.0907 88.3638 84.7937 86.4041 85.0861C81.983 85.7457 78.0159 84.8567 73.5093 85.7825C75.2183 85.2465 76.9285 85.3226 78.4188 85.2465C85.5294 84.8805 91.4384 84.7248 98.4598 85.9073C99.4414 86.0725 101.528 86.643 102.365 87.6829C103.206 88.7275 103.741 88.989 103.479 90.3046C103.449 90.4532 103.404 90.6088 103.29 90.7075C103.154 90.824 102.959 90.8299 102.781 90.8311C100.222 90.8418 97.6635 90.8537 95.1048 90.8644C94.8017 90.8656 94.4856 90.8644 94.2122 90.7336C93.9068 90.5875 93.6964 90.301 93.4421 90.0764C92.5341 89.2754 90.1073 89.8411 88.8998 89.9326C84.3456 90.2761 81.6989 90.0146 76.7074 90.4841C74.3424 90.7063 71.5388 90.7883 69.1987 90.3807C64.597 89.5785 68.3609 84.909 68.3609 83.2107V83.2083Z" fill="#FBC479"/>
<path d="M82.8516 85.2814C79.4146 85.4584 75.9776 85.6355 72.5394 85.8138C74.2306 85.1447 76.0857 85.0603 77.8969 84.8975C81.7012 84.5552 85.471 83.8338 89.1326 82.7452C90.415 82.3637 91.8197 81.8218 92.3747 80.606C92.7135 79.8644 92.673 78.9801 93.0807 78.2754C93.6963 78.9457 93.5406 79.9939 93.3457 80.8841C93.1449 81.798 92.9405 82.7856 92.414 83.5771C91.8673 84.3995 90.825 84.4173 89.8992 84.5944C87.5769 85.0389 85.2083 85.1613 82.8516 85.2825V85.2814Z" fill="#EAB473"/>
<path d="M98.1964 86.7012C98.9808 87.167 99.5845 87.93 99.8567 88.8024C100.058 89.4477 100.077 90.1477 99.9173 90.8049L101.63 90.8358C101.569 90.137 101.165 89.3336 100.897 88.8974C100.198 87.7637 99.2815 87.3465 98.1964 86.7024V86.7012Z" fill="#EAB473"/>
<path d="M66.9234 88.4558C67.1029 88.6103 67.3085 88.7362 67.5248 88.8242C68.1546 89.0797 68.8535 89.0844 69.5321 89.0856C74.8469 89.0916 80.1795 89.0963 85.4515 88.4189C86.886 88.2347 88.3216 87.9994 89.768 88.0232C90.9671 88.0434 92.1924 88.249 93.2728 88.7921C94.0726 89.1938 95.3121 89.9544 96.1084 90.8873C95.7733 90.8885 95.4381 90.8897 95.103 90.8921C94.7999 90.8933 94.4838 90.8921 94.2104 90.7614C93.905 90.6152 93.6946 90.3288 93.4403 90.1041C92.5323 89.3031 90.1055 89.8688 88.898 89.9603C84.3439 90.3038 81.6971 90.0423 76.7056 90.5118C74.3406 90.734 71.537 90.816 69.1969 90.4084C67.5973 90.1291 67.009 89.3827 66.9222 88.4569L66.9234 88.4558Z" fill="#EAB473"/>
</svg>
