<svg width="200" height="100" viewBox="0 0 200 100" fill="none" xmlns="http://www.w3.org/2000/svg">
<path d="M128.596 42.9256C132.289 48.969 137.318 55.3406 141.533 61.0337C142.861 62.8281 144.246 65.2582 143.144 67.2179C142.383 68.5714 140.662 69.0184 139.214 68.6804C137.765 68.3423 135.585 69.4091 134.656 68.2112C131.247 63.8239 127.629 60.458 123.78 57.4596C120.093 54.5873 116.359 51.6673 113.515 47.8617C111.305 44.9062 109.682 41.4582 108.78 37.807C108.429 36.3886 108.187 34.8894 108.501 33.46C111.017 22.0457 122.766 33.3816 128.597 42.9244L128.596 42.9256Z" fill="#FBC479"/>
<path d="M135 60.9417C135.551 60.6918 136.149 60.5032 136.753 60.5448C135.69 61.7623 135.326 63.4747 135.46 65.0866C135.539 66.0579 135.785 67.0071 136.101 67.9257C136.191 68.1854 136.345 68.483 136.479 68.788C135.739 68.8297 135.071 68.7488 134.655 68.2124C133.573 66.8197 132.47 65.53 131.344 64.3223C132.163 62.8463 133.462 61.6399 135 60.9429V60.9417Z" fill="#EAB473"/>
<path d="M103.162 67.9284C102.585 68.9217 101.598 69.7142 100.433 69.9481C99.2683 70.1821 97.943 69.7987 97.1898 68.8935C96.2148 67.7238 96.3606 66.0421 96.8113 64.6335C97.229 63.3315 97.9761 61.9952 99.2989 61.5065C103.395 59.9963 104.591 65.4664 103.162 67.9271V67.9284Z" fill="#DBA76E"/>
<path d="M98.9091 72.9791C96.1887 77.277 94.1236 81.989 92.8069 86.9019C92.6624 87.4396 92.5203 87.9944 92.1847 88.4378C91.8491 88.8812 91.2636 89.1874 90.7333 89.0233C89.8465 88.7489 89.762 87.5326 89.92 86.6177C90.3193 84.2991 91.1338 82.0747 91.9434 79.8651C93.1499 76.574 94.3576 73.2828 95.564 69.9905C96.1336 68.4374 96.9408 66.6662 98.5551 66.3074C99.7444 66.0428 101.584 67.0104 101.473 68.3896C101.353 69.8569 99.6746 71.7702 98.9103 72.9778L98.9091 72.9791Z" fill="#DBA76E"/>
<path d="M96.6902 85.1314C98.7969 85.5478 102.872 86.9809 102.366 87.8689C102.091 88.0992 100.203 88.1176 99.1178 88.0539C100.054 88.2854 100.91 88.8231 101.525 89.5641C101.658 89.7258 101.788 89.934 101.723 90.1337C101.647 90.3652 101.364 90.4411 101.124 90.4791C98.3707 90.92 95.5793 91.1184 92.7915 91.0719C91.9684 91.0584 91.0841 91.0008 90.4374 90.4913C89.8445 90.0234 89.5653 89.2469 89.5322 88.4924C89.4991 87.7391 89.6816 86.9944 89.8629 86.2619C90.0258 85.603 90.1887 84.944 90.3516 84.285C90.7019 82.8667 91.9133 83.13 92.8981 83.7204C94.1487 84.47 95.2388 84.8448 96.6902 85.1326V85.1314Z" fill="#DBA76E"/>
<path d="M98.9682 87.3369C99.9505 87.3944 101.588 87.3846 102.096 87.2119C102.365 87.4459 102.48 87.67 102.367 87.8672C102.196 88.0105 101.398 88.0718 100.559 88.0816C100.083 87.7337 99.5402 87.4777 98.9682 87.3356V87.3369Z" fill="#DBA76E"/>
<path d="M90.2869 89.774C90.9336 90.2835 91.8179 90.3411 92.641 90.3546C95.4288 90.4023 98.2202 90.2039 100.974 89.7618C101.166 89.7311 101.383 89.6748 101.502 89.5364C101.509 89.545 101.516 89.5535 101.524 89.5621C101.657 89.7238 101.787 89.932 101.722 90.1317C101.646 90.3632 101.363 90.4391 101.123 90.4771C98.3708 90.918 95.5782 91.1164 92.7905 91.0699C91.9674 91.0564 91.083 90.9988 90.4363 90.4893C89.89 90.0582 89.6108 89.3649 89.5446 88.668C89.6892 89.1003 89.9305 89.4923 90.2869 89.7728V89.774Z" fill="#DBA76E"/>
<path d="M103.611 64.2335C102.819 65.5062 101.544 65.6997 100.048 65.6029C99.7544 65.5833 99.447 65.4902 99.2571 65.2649C98.9827 64.9378 97.8032 64.8386 97.8743 64.4173C98.8284 58.7364 101.265 52.7151 102.716 47.1409C102.987 46.1022 103.288 45.0219 104.014 44.2306C105.349 42.7743 108.666 40.7937 110.512 41.3314C112.975 42.0492 114.437 42.2194 113.734 44.2319C111.796 49.7841 106.702 59.268 103.611 64.2335Z" fill="#DBA76E"/>
<path d="M60.2014 64.0381C58.9656 64.3223 57.6574 64.4987 56.609 65.1307C54.5647 66.3641 54.0123 68.9718 53.5579 71.3468C52.5119 76.8145 51.2282 82.2087 49.7106 87.5122C49.5073 88.2226 49.1387 89.0519 48.3474 89.031C48.1722 89.0261 47.9946 88.9771 47.8244 88.9122C46.4134 88.3733 45.5462 86.8092 45.4359 85.4018C45.3257 83.9945 45.8046 82.6937 46.2395 81.4199C48.3143 75.3397 49.5208 68.8811 49.8209 62.2609C49.8772 61.0103 50.0107 59.5699 51.1008 59.0163C51.6422 58.7419 52.3171 58.7541 52.9393 58.65C55.9867 58.1405 57.3965 54.9902 57.9845 52.0567C58.5724 49.1232 58.8418 45.8541 60.9767 43.8637C63.5109 41.5022 68.0894 41.8452 71.4614 43.9715C73.6833 45.3727 75.5524 47.5591 76.0631 49.9757C76.9352 54.101 75.376 59.0003 72.3641 60.9417C67.0544 64.3652 64.443 63.0595 60.2014 64.0369V64.0381Z" fill="#DBA76E"/>
<path d="M144.907 62.8159C145.106 61.8556 145.709 61.0362 146.274 60.2339C146.838 59.4316 147.398 58.5681 147.49 57.5919C147.582 56.6157 147.043 55.5084 146.085 55.2965C145.081 55.0736 144.122 55.8992 143.667 56.8215C142.79 58.5987 143.087 60.8206 142.048 62.5084L144.908 62.8171L144.907 62.8159Z" fill="#FBC479"/>
<path d="M145.699 59.7274C145.943 59.3158 146.19 58.8982 146.322 58.4511C146.455 58.0053 146.459 57.5178 146.233 57.165C146.006 56.811 145.513 56.6359 145.083 56.8392C144.779 56.9837 144.557 57.2838 144.435 57.5937C144.312 57.9036 144.274 58.2282 144.23 58.5479C144.121 59.3183 143.963 60.0887 143.756 60.853C143.685 61.1164 143.61 61.4079 143.733 61.6222C144.312 62.6364 145.488 60.0814 145.699 59.7274Z" fill="#EAB473"/>
<path d="M61.3512 32.1472C62.8578 29.1415 65.3687 27.1878 67.9568 25.2293C70.7409 21.8487 73.7038 18.3016 76.3911 14.8169C78.2773 12.3697 79.9431 9.55133 82.5434 8.05702C85.9044 6.12667 90.162 6.91792 93.4115 9.06017C96.661 11.2024 99.0972 14.5034 101.379 17.7994C102.933 20.0446 106.955 26.11 115.533 28.1616C118.992 28.9884 121.268 33.3831 125.48 38.4062C130.242 44.0833 124.71 50.7685 120.467 52.678C114.079 55.5527 102.643 57.0164 92.0568 57.0152C70.1505 57.014 63.3477 49.2717 61.8987 47.0082C60.838 45.351 59.9745 43.5125 59.6291 41.532C59.073 38.3351 59.9182 35.006 61.3512 32.1472Z" fill="#FBC479"/>
<path d="M111.123 68.732C110.653 69.7804 109.753 70.6709 108.619 71.0249C107.484 71.3789 106.127 71.1363 105.282 70.3145C104.191 69.2525 104.16 67.5659 104.463 66.1169C104.742 64.7782 105.346 63.3721 106.611 62.7486C110.528 60.8195 112.287 66.1365 111.122 68.732H111.123Z" fill="#FBC479"/>
<path d="M107.419 74.1999C105.161 78.7575 103.597 83.6593 102.799 88.6824C102.712 89.2311 102.627 89.7995 102.339 90.2747C102.051 90.7512 101.501 91.1162 100.956 91.0084C100.045 90.8283 99.8357 89.6268 99.8969 88.7008C100.052 86.3528 100.631 84.0562 101.206 81.7743C102.064 78.3754 102.921 74.9764 103.78 71.5763C104.184 69.9729 104.802 68.1271 106.37 67.6016C107.525 67.2146 109.457 67.9862 109.489 69.3691C109.523 70.8413 108.052 72.9187 107.417 74.1986L107.419 74.1999Z" fill="#FBC479"/>
<path d="M106.251 88.189C108.307 88.8063 112.227 90.6252 111.638 91.4593C111.341 91.6614 109.46 91.4985 108.386 91.3307C109.294 91.6504 110.096 92.2677 110.636 93.0651C110.753 93.239 110.862 93.4582 110.778 93.6505C110.68 93.8734 110.391 93.9212 110.148 93.9371C107.365 94.1123 104.568 94.0412 101.797 93.7252C100.979 93.6322 100.104 93.4901 99.5104 92.9205C98.9654 92.3987 98.7621 91.5977 98.8025 90.8444C98.8417 90.0911 99.0952 89.3673 99.3463 88.6556C99.5717 88.015 99.7971 87.3757 100.022 86.7351C100.507 85.3571 101.687 85.7356 102.611 86.4178C103.784 87.285 104.832 87.7627 106.25 88.1877L106.251 88.189Z" fill="#FBC479"/>
<path d="M108.305 90.6038C109.276 90.7556 110.908 90.9026 111.431 90.7801C111.676 91.0386 111.768 91.2738 111.637 91.4587C111.452 91.5849 110.653 91.5689 109.816 91.4979C109.377 91.1059 108.861 90.7985 108.305 90.6025V90.6038Z" fill="#D3A266"/>
<path d="M99.4297 92.1954C100.024 92.7649 100.898 92.907 101.716 93.0001C104.487 93.3149 107.285 93.3859 110.067 93.212C110.261 93.1997 110.483 93.1654 110.615 93.0393C110.621 93.0491 110.628 93.0577 110.635 93.0675C110.752 93.2414 110.861 93.4606 110.777 93.6529C110.679 93.8759 110.39 93.9236 110.147 93.9395C107.364 94.1147 104.567 94.0437 101.796 93.7276C100.978 93.6346 100.103 93.4925 99.5093 92.9229C99.0071 92.4416 98.7965 91.7238 98.7965 91.0244C98.8981 91.4678 99.1014 91.883 99.4285 92.1954H99.4297Z" fill="#D3A266"/>
<path d="M52.221 86.3787C53.4238 88.1584 55.4314 92.0117 54.3363 92.0828C53.7827 92.062 52.8457 90.8739 51.8879 90.1635C52.3889 90.9853 52.6191 91.9713 52.5334 92.9304C52.515 93.1398 52.4599 93.3787 52.2737 93.4742C52.0569 93.5844 51.8022 93.4387 51.605 93.2978C49.339 91.6737 47.2163 89.8487 45.2701 87.8534C44.6956 87.2643 44.1077 86.6016 44.0072 85.7834C43.9154 85.035 44.6907 83.8029 45.2664 82.9908C45.7024 82.3747 46.4275 80.8008 46.7399 79.8932C46.9616 79.2513 47.7357 81.6692 48.3163 81.3164C49.5644 80.5558 50.238 81.5957 50.5222 82.7078C50.8823 84.1213 51.3931 85.1539 52.2223 86.3811L52.221 86.3787Z" fill="#DBA76E"/>
<path d="M51.9825 90.2346C51.8735 89.8867 51.7228 89.5523 51.533 89.2412C52.4908 89.9516 53.4278 91.1397 53.9814 91.1605C54.3869 91.1336 54.366 90.5885 54.1186 89.8206C54.649 91.0368 54.8915 92.0449 54.3366 92.0816C53.8014 92.062 52.9073 90.9499 51.9825 90.2346Z" fill="#B78B5E"/>
<path d="M44.9154 86.9302C46.8617 88.9267 48.9843 90.7505 51.2503 92.3746C51.4475 92.5167 51.7023 92.6624 51.9191 92.551C52.1065 92.4555 52.1604 92.2166 52.1787 92.0072C52.2265 91.4805 52.1775 90.9452 52.0415 90.4345C52.4359 91.1975 52.6111 92.0733 52.5339 92.9282C52.5156 93.1377 52.4604 93.3765 52.2743 93.4721C52.0575 93.5823 51.8027 93.4378 51.6055 93.2957C49.3396 91.6715 47.2169 89.8465 45.2706 87.8513C44.7109 87.2768 44.1401 86.6325 44.0176 85.8438C44.2601 86.2394 44.5896 86.5958 44.9154 86.9302Z" fill="#B78B5E"/>
<path d="M97.6558 12.1846C97.0862 11.8772 96.9221 11.7902 96.3525 11.4828C96.9894 12.1907 97.0103 12.6844 97.1621 13.625C95.9667 12.4235 94.6108 11.3799 93.1446 10.5311C93.1887 11.7706 93.1116 13.0138 92.9144 14.2375C92.1562 13.3543 91.4862 12.3965 90.9179 11.3811C89.6735 13.0555 88.7352 14.9577 88.1669 16.9652C87.089 15.27 86.4056 13.3249 86.1875 11.3285C85.4551 11.7033 84.7802 12.1895 84.1923 12.764C84.1286 12.1393 84.1568 11.5048 84.2731 10.8863C82.9674 11.1313 81.734 11.7473 80.7529 12.6427C80.9452 11.9421 81.2282 11.266 81.5944 10.6376C80.3377 10.7687 79.1263 11.3064 78.1856 12.1503C79.2696 9.80475 81.2502 7.88664 83.6301 6.8786C86.1716 5.80196 89.3244 5.58762 91.7055 6.95821C93.735 8.12549 96.9184 10.9279 97.6582 12.1834L97.6558 12.1846Z" fill="#D3A266"/>
<path d="M151.437 70.1506C152.199 72.2537 156.228 78.3362 155.99 81.6911C155.853 83.6361 152.874 86.9555 150.928 87.0657C148.981 87.1759 146.898 84.8316 146.268 82.987C146.059 82.3721 145.984 81.7205 145.816 81.0934C145.246 78.967 143.642 77.2706 141.909 75.9111C140.177 74.5515 138.211 74.2636 136.62 72.7412C135.029 71.2199 133.803 68.3342 133.872 66.1331C133.945 63.7655 135.649 61.611 137.839 60.7083C140.029 59.8068 142.595 60.0653 144.723 61.1052C148.386 62.8947 149.847 65.7596 151.437 70.1494V70.1506Z" fill="#FBC479"/>
<path d="M149.727 67.2634C149.963 66.395 150.559 65.6822 151.12 64.9828C151.681 64.2834 152.241 63.5277 152.381 62.6372C152.519 61.748 152.088 60.6983 151.223 60.4423C150.317 60.174 149.393 60.8697 148.927 61.6867C148.025 63.2606 148.172 65.3172 147.129 66.7992L149.728 67.2647L149.727 67.2634Z" fill="#FBC479"/>
<path d="M150.635 68.2112C150.09 67.3661 149.509 66.543 148.897 65.7444C148.792 66.3298 148.543 66.8896 148.179 67.3587C148.169 66.7328 148.006 66.1094 147.71 65.557C147.441 65.835 147.17 66.1118 146.9 66.3899C146.944 65.8313 146.937 65.2679 146.88 64.7106C145.257 64.2243 143.418 64.5183 142.028 65.4871C142.318 64.397 142.934 63.3951 143.779 62.6467C142.595 62.3956 141.382 62.2805 140.172 62.3038C140.667 61.8837 141.161 61.4635 141.656 61.0434C139.613 60.7838 138.208 58.9269 137.045 57.2256C138.036 57.9862 139.11 58.6391 140.242 59.167C139.817 58.655 139.663 57.9323 139.839 57.2905C140.164 57.9078 140.594 58.47 141.106 58.944C141.293 58.4394 141.48 57.936 141.668 57.4314C141.774 58.7762 142.711 60.0207 143.975 60.4935C145.239 60.9663 146.763 60.6417 147.726 59.6961C147.562 60.3391 147.396 60.9834 147.232 61.6264C147.597 61.4795 147.962 61.3337 148.327 61.1867C148.22 61.5199 148.111 61.8543 148.003 62.1874C148.951 62.9872 150.152 63.4821 151.389 63.5837C151.017 63.9218 150.646 64.2611 150.274 64.5991C150.848 64.778 151.396 65.0438 151.892 65.3843C151.726 65.2704 150.408 65.9538 150.294 66.2037C150.063 66.7071 150.581 67.6612 150.636 68.21L150.635 68.2112Z" fill="#D3A266"/>
<path d="M147.445 69.8173C148.018 69.6103 148.404 68.8975 148.132 68.3524C148.001 68.0903 147.753 67.909 147.512 67.7437C147.102 67.4632 146.68 67.1998 146.249 66.9524C145.895 66.7503 145.526 66.5568 145.125 66.487C144.723 66.4172 144.277 66.4882 143.977 66.7638C143.633 67.0786 143.543 67.6102 143.684 68.0535C144.049 69.2049 146.287 70.235 147.446 69.8161L147.445 69.8173Z" fill="#D3A266"/>
<path d="M144.261 67.0708C144.382 67.0622 144.503 67.0769 144.623 67.11C144.865 67.1333 145.181 67.3488 145.29 67.4566C146.17 68.3287 147.051 69.2008 147.932 70.0729C147.581 70.1537 147.219 70.0141 146.898 69.8512C146.567 69.6846 146.251 69.4899 145.952 69.2706C145.667 70.0092 144.277 69.1494 143.854 68.7427C143.621 68.5198 143.41 68.2381 143.405 67.9147C143.399 67.4726 143.82 67.099 144.262 67.0684L144.261 67.0708Z" fill="#674E33"/>
<path d="M154.465 82.817C154.374 82.9835 154.273 83.1465 154.145 83.2873C153.991 83.4576 153.801 83.5947 153.592 83.6866C153.384 83.7785 153.151 83.8262 152.928 83.7858C152.704 83.7466 152.492 83.6107 152.39 83.4073C152.29 83.204 152.319 82.9333 152.486 82.779C152.619 82.6541 152.815 82.6185 152.998 82.621C153.181 82.6234 153.363 82.6602 153.546 82.6541C154.264 82.6332 154.474 82.0906 154.749 81.5664C154.88 81.9584 154.653 82.4728 154.465 82.8157V82.817Z" fill="#674E33"/>
<path d="M149.818 83.8503C149.412 82.988 149.195 82.0498 148.832 81.1691C148.517 80.4072 148.092 79.6944 147.617 79.0219C147.265 78.5247 146.871 78.036 146.345 77.7285C147.008 78.4034 147.44 79.2718 147.761 80.1611C148.082 81.0503 148.304 81.9738 148.609 82.868C149.074 84.2312 149.738 85.5271 150.572 86.7017C150.687 86.8646 150.746 87.03 150.936 87.09C151.018 87.112 151.106 87.1365 151.537 86.9675C151.736 86.8903 152.278 86.6013 152.278 86.6013C152.031 86.5106 151.836 86.3294 151.737 86.2522C151.57 86.1211 151.409 85.9827 151.256 85.837C150.66 85.2711 150.169 84.595 149.819 83.8503H149.818Z" fill="#EAB473"/>
<path d="M93.0684 57.35C84.4981 57.35 78.2392 56.1643 73.7085 54.5855C74.5291 52.3012 75.3927 50.0328 76.2966 47.7803C79.736 50.8105 84.2495 52.3391 88.7447 53.2418C92.2832 53.9523 95.8904 54.3148 99.4988 54.332C102.921 54.3479 106.6 53.259 109.952 53.5125C111.49 53.6289 112.603 54.4201 113.081 55.5274C107.119 56.7375 99.9164 57.35 93.0684 57.35Z" fill="#EAB473"/>
<path d="M57.8658 40.6168C56.5981 43.4033 55.7235 46.349 54.6604 49.22C54.3199 50.1411 53.8826 51.1394 52.9921 51.5534C53.8152 47.4673 55.4161 43.5858 57.0096 39.7349C58.2467 36.745 59.6296 33.5727 62.3426 31.8114C62.7198 31.5664 63.1387 31.3471 63.5883 31.341C64.7813 31.3226 64.8449 32.5855 64.1198 33.2481C63.5319 33.7846 62.6035 33.8593 61.9531 34.4386C60.1428 36.0505 58.8555 38.4414 57.8658 40.6168Z" fill="#FBC479"/>
<path d="M55.2839 51.9577C54.9703 53 54.3775 53.9824 53.4993 54.6254C53.1294 54.8961 52.708 55.1092 52.3994 55.4485C52.0772 55.8025 51.8886 56.2789 51.5016 56.5619C51.5114 56.0499 51.5199 55.5379 51.5297 55.0259C50.8157 55.6726 50.2375 56.47 49.8456 57.3507C49.5614 55.6628 49.9166 53.877 50.823 52.4256C50.2706 52.88 49.7672 53.392 49.3238 53.953C49.472 51.6625 50.6968 49.4639 52.566 48.1337C55.7456 45.8702 55.9661 49.6893 55.2839 51.9577Z" fill="#D3A266"/>
<path opacity="0.38" d="M154.157 77.3585C154.406 77.8999 154.66 78.4744 154.599 79.0672C154.582 79.2301 154.539 79.3942 154.441 79.524C154.26 79.7653 153.914 79.8413 153.624 79.7592C153.334 79.6772 153.098 79.4628 152.922 79.2178C152.356 78.4229 152.386 77.3695 152.26 76.4031C152.042 74.7398 151.312 73.1965 150.655 71.6532C150.578 71.4707 150.5 71.2809 150.512 71.0824C150.524 70.8852 150.654 70.6795 150.85 70.6501C151.069 70.6182 151.254 70.8044 151.385 70.9832C152.042 71.8823 152.124 72.9332 152.575 73.913C153.102 75.0607 153.63 76.2096 154.157 77.3573V77.3585Z" fill="white"/>
<path opacity="0.38" d="M101.978 21.6629C102.381 22.1749 102.791 22.7053 102.907 23.3128C103.024 23.9215 102.77 24.6332 102.106 24.9688C101.594 25.2272 100.935 25.2113 100.405 25.0202C99.8746 24.8304 99.4569 24.4874 99.1029 24.1187C97.224 22.1663 96.7806 19.3186 94.3407 17.8279C91.7416 16.2405 93.9855 13.6867 96.5736 15.2558C98.9192 16.6766 100.421 19.6811 101.978 21.6617V21.6629Z" fill="white"/>
<path d="M81.3824 43.3936C82.1038 45.3325 82.8902 47.3045 82.8142 49.3708C82.7383 51.4383 81.8723 53.5426 80.2139 54.7785C79.7374 55.1337 79.1752 55.4191 78.58 55.4117C77.5144 55.3982 76.657 54.4159 76.4316 53.3736C76.2074 52.3312 76.4708 51.2509 76.766 50.227C77.3857 48.0749 78.1586 45.9498 78.4342 43.7279C78.6632 41.8735 75.9735 39.3173 75.655 37.5523C76.9681 37.3539 80.2543 40.3572 81.3836 43.3936H81.3824Z" fill="#EAB473"/>
<path d="M69.1767 89.2766C71.232 89.9013 74.6787 91.0147 74.1532 91.8745C73.3203 92.4612 71.9755 91.9064 70.9025 91.7349C71.8101 92.0582 72.6087 92.678 73.1464 93.4778C73.264 93.6518 73.3718 93.8722 73.2873 94.0633C73.1893 94.2862 72.899 94.3328 72.6565 94.3475C69.8736 94.5128 67.0761 94.432 64.3067 94.1086C63.4885 94.0131 62.7328 93.713 62.0224 93.2966C60.9972 92.6939 60.7167 91.4066 60.7584 90.6521C60.8 89.8989 61.6194 89.7408 61.8717 89.0304C62.0996 88.3911 62.3274 87.7517 62.5552 87.1123C63.0451 85.7356 64.2063 84.3442 64.6656 85.7503C65.4066 88.0224 67.762 88.8467 69.1779 89.2766H69.1767Z" fill="#FBC479"/>
<path d="M63.4294 93.6152C66.1988 93.9398 68.9963 94.0194 71.7792 93.854C72.0217 93.8393 72.312 93.7928 72.41 93.5699C72.4945 93.3776 72.3867 93.1583 72.2691 92.9844C71.9666 92.5349 71.582 92.1429 71.1423 91.8281C71.9507 92.1699 72.6574 92.748 73.1473 93.4768C73.2649 93.6507 73.3727 93.8712 73.2882 94.0622C73.1902 94.2852 72.8999 94.3317 72.6574 94.3464C69.8746 94.5118 67.077 94.4309 64.3076 94.1076C63.4894 94.012 62.7337 93.7119 62.0233 93.2955C61.9461 93.2502 61.8739 93.1987 61.8041 93.1461C62.3197 93.3812 62.8599 93.549 63.4294 93.6152Z" fill="#D3A266"/>
<path d="M71.0407 91.7576C70.7259 91.5445 70.3842 91.3693 70.0253 91.2419C71.0982 91.4134 72.4431 91.9683 73.276 91.3816C73.4267 91.1342 73.2491 90.8647 72.8694 90.5928C73.7929 91.0251 74.3967 91.4759 74.1542 91.8727C73.3556 92.4349 72.0891 91.9499 71.0407 91.7576Z" fill="#D3A266"/>
<path d="M79.5757 52.1477C79.0147 53.8453 78.0544 55.3788 77.0844 56.8805C74.5379 60.8208 71.5677 64.9155 67.1325 66.4465C65.2903 67.0834 63.0807 67.3725 62.02 69.0089C60.9838 70.6073 61.5693 72.7079 62.1217 74.5317C63.0501 77.595 63.7973 80.7147 64.3546 83.8674C64.6449 85.5087 64.8849 87.1586 65.054 88.817C65.2022 90.266 65.0466 92.1278 63.6711 92.6042C62.6569 92.9558 61.5289 92.2368 61.0242 91.29C60.5196 90.3432 60.473 89.2298 60.3849 88.1605C59.9672 83.1215 58.3994 78.254 56.7226 73.4832C56.0575 71.5896 55.3679 69.6838 55.1352 67.6897C54.9025 65.6969 55.1658 63.5755 56.2792 61.906C56.8046 61.1197 57.4979 60.4582 58.0466 59.6878C59.8447 57.1597 59.8704 53.8086 59.6377 50.7146C59.405 47.6207 58.5084 40.1357 59.6463 37.2487C61.2177 33.2606 66.2408 35.0489 70.4996 35.5266C73.961 35.9149 77.0648 38.089 78.9192 40.9931C80.8851 44.0735 80.6928 48.7671 79.5757 52.1477Z" fill="#FBC479"/>
<path d="M105.535 46.832C105.326 47.4922 105.116 48.1536 104.907 48.8138C104.721 49.4005 104.534 49.9921 104.46 50.6033C104.319 51.7645 104.588 52.933 104.858 54.0721C104.921 54.344 104.991 54.6257 105.166 54.8425C105.487 55.2369 106.061 55.3018 106.569 55.281C107.011 55.2638 107.456 55.2038 107.875 55.0605C108.471 54.8572 109.594 54.2779 109.479 53.494C109.39 52.8864 108.162 52.2262 107.769 51.7951C106.528 50.4318 105.722 48.6693 105.534 46.8333L105.535 46.832Z" fill="#EAB473"/>
<path d="M111.185 65.0091C110.53 66.3576 109.282 66.6822 107.784 66.741C107.49 66.752 107.174 66.692 106.962 66.4875C106.655 66.191 105.472 66.2143 105.498 65.7881C105.856 60.0387 107.653 53.7969 108.515 48.1013C108.676 47.0394 108.864 45.9346 109.504 45.0711C110.68 43.4837 113.772 41.1687 115.665 41.5117C118.189 41.9698 119.66 41.9857 119.171 44.0606C117.823 49.7843 113.743 59.7472 111.185 65.0079V65.0091Z" fill="#FBC479"/>
<path opacity="0.38" d="M109.397 65.2325C109.835 65.6992 110.287 66.1854 110.487 66.7942C110.686 67.4029 110.555 68.1697 110.016 68.5151C109.778 68.6682 109.49 68.7233 109.208 68.7613C108.833 68.8115 108.401 68.8201 108.136 68.5506C107.787 68.1942 107.945 67.6111 107.98 67.1139C108.01 66.679 107.923 66.2356 107.73 65.8449C107.616 65.6146 107.463 65.3623 107.547 65.1198C107.633 64.8736 107.926 64.7707 108.185 64.7524C108.754 64.7132 109.335 64.9434 109.724 65.3611L109.395 65.2337L109.397 65.2325Z" fill="white"/>
</svg>
