<svg width="3247" height="1806" viewBox="0 0 3247 1806" fill="none" xmlns="http://www.w3.org/2000/svg">
<g clip-path="url(#clip0_49_238)">
<path d="M1097.55 231.092L1090.56 230.538C1089.35 230.445 1088.41 229.465 1088.37 228.256L1083.71 114.028C1083.65 112.631 1082.41 111.575 1081.02 111.754L1066.81 113.551C1065.62 113.704 1064.73 114.718 1064.73 115.918V246.659C1064.73 247.672 1065.37 248.575 1066.32 248.907L1089.12 257.014C1089.41 257.116 1089.7 257.158 1089.99 257.15L1149.03 255.387C1150.33 255.344 1151.35 254.289 1151.35 253.003V115.842C1151.35 114.675 1150.51 113.679 1149.36 113.483L1110.66 107.028C1109.26 106.798 1107.98 107.82 1107.88 109.234L1100.13 228.869C1100.04 230.198 1098.88 231.203 1097.56 231.1L1097.55 231.092Z" fill="white"/>
<path d="M1108.95 473.625L1098.87 472.833C1097.13 472.697 1095.76 471.283 1095.69 469.538L1088.97 304.641C1088.89 302.623 1087.1 301.107 1085.09 301.363L1064.58 303.96C1062.86 304.181 1061.57 305.646 1061.57 307.383V496.115C1061.57 497.571 1062.49 498.874 1063.86 499.368L1096.77 511.068C1097.17 511.213 1097.6 511.281 1098.03 511.264L1183.27 508.726C1185.13 508.667 1186.61 507.143 1186.61 505.278V307.273C1186.61 305.586 1185.39 304.147 1183.73 303.866L1127.88 294.55C1125.86 294.218 1124 295.691 1123.87 297.727L1112.66 470.423C1112.53 472.339 1110.87 473.787 1108.95 473.642V473.625Z" fill="white"/>
<path d="M1232.93 222.542L1220.72 221.58C1218.62 221.41 1216.97 219.698 1216.88 217.586L1208.75 18.057C1208.65 15.6131 1206.49 13.7822 1204.06 14.0888L1179.25 17.231C1177.16 17.495 1175.59 19.2663 1175.59 21.3696V249.733C1175.59 251.496 1176.71 253.071 1178.37 253.667L1218.2 267.82C1218.68 267.99 1219.2 268.075 1219.72 268.058L1322.84 264.984C1325.1 264.916 1326.9 263.068 1326.9 260.812V21.2248C1326.9 19.1811 1325.42 17.4439 1323.41 17.1118L1255.83 5.83713C1253.39 5.42838 1251.13 7.21666 1250.97 9.68618L1237.42 218.651C1237.26 220.976 1235.24 222.721 1232.92 222.542H1232.93Z" fill="white"/>
<path d="M912.314 509.604L970.715 582.83H1081.21C1084.21 580.36 1084.57 575.906 1082.01 572.994L1034.18 518.486C1033.08 517.234 1032.48 515.624 1032.48 513.955V166.322C1032.48 163.359 1030.58 160.728 1027.76 159.799L933.467 128.641C932.479 128.317 931.44 128.215 930.41 128.351L782.281 147.963C778.866 148.414 776.312 151.326 776.312 154.775V488.809C776.312 492.36 779.011 495.323 782.545 495.647L907.776 507.271C909.53 507.432 911.156 508.267 912.314 509.595M962.88 209.675L970.706 436.25C970.842 440.142 967.717 443.369 963.817 443.361L952.108 443.327L951.989 443.097H921.418C917.466 443.097 914.333 439.776 914.554 435.842L927.259 211.115C927.455 207.666 930.18 204.898 933.62 204.651L955.506 203.059C959.389 202.778 962.735 205.784 962.872 209.675H962.88Z" fill="white"/>
<path d="M1392.42 137.301L1415.09 140.324C1416.98 140.58 1418.36 142.223 1418.28 144.122L1414.36 242.801C1414.28 244.896 1415.95 246.633 1418.05 246.633H1484.88C1486.91 246.633 1488.57 244.981 1488.57 242.946V15.9366C1488.57 13.7481 1486.67 12.0365 1484.49 12.2749L1426.44 18.4402C1424.61 18.6361 1423.22 20.1348 1423.14 21.9571L1420.07 99.3641C1419.99 101.255 1418.5 102.779 1416.61 102.898L1392.66 104.38C1390.53 104.516 1388.72 102.796 1388.75 100.658L1389.95 4.08287C1389.97 2.0306 1388.31 0.353027 1386.26 0.353027H1353.19C1351.16 0.353027 1349.51 2.00506 1349.51 4.04029V230.028C1349.51 231.986 1351.04 233.604 1352.99 233.706L1383.21 235.375C1385.31 235.495 1387.08 233.834 1387.1 231.739L1388.24 140.912C1388.26 138.698 1390.22 137.012 1392.41 137.301H1392.42Z" fill="white"/>
<path d="M1209.76 306.268V511.103C1209.76 512.832 1212.32 514.347 1216 514.799L1274.79 521.952C1280.15 522.599 1285.4 520.768 1285.4 518.256L1285.22 303.305C1285.22 301.023 1280.85 299.251 1275.86 299.507L1217.25 302.479C1212.98 302.692 1209.76 304.335 1209.76 306.277V306.268Z" fill="white"/>
<path d="M1441.28 416.604L1394.86 297.897C1394.21 296.245 1392.61 295.155 1390.84 295.155H1317.62C1315.23 295.155 1313.3 297.088 1313.3 299.472V556.925C1313.3 559.556 1315.62 561.574 1318.23 561.2L1398.42 549.721C1400.6 549.405 1402.2 547.506 1402.13 545.301L1399.15 455.938C1398.99 451.016 1405.87 449.696 1407.53 454.337L1446.67 563.584C1447.28 565.304 1448.91 566.445 1450.73 566.445H1485.02C1487.4 566.445 1489.33 564.512 1489.33 562.128V288.674C1489.33 286.29 1487.4 284.357 1485.02 284.357H1455.55C1453.18 284.357 1451.26 286.256 1451.23 288.623L1449.63 415.097C1449.57 419.84 1443.01 421.033 1441.29 416.613L1441.28 416.604Z" fill="white"/>
<path d="M1524.22 138.119L1517.21 536.402C1517.14 540.618 1520.61 544.041 1524.83 543.905L1552.08 543.036C1555.97 542.908 1559.09 539.8 1559.22 535.917L1562.01 454.67C1562.14 450.906 1565.09 447.84 1568.84 447.568L1632.68 442.85C1635.96 442.603 1639.01 444.57 1640.14 447.661L1669.85 528.492C1671.25 532.315 1675.49 534.282 1679.33 532.868L1811.29 484.295C1815.03 482.916 1817 478.828 1815.75 475.047L1691.33 99.5855C1690.13 95.9493 1686.34 93.846 1682.62 94.7316L1529.88 131.076C1526.6 131.86 1524.26 134.755 1524.2 138.127L1524.22 138.119ZM1564.44 384.331L1567.63 291.476C1567.92 283.378 1579.14 281.581 1581.93 289.186L1614.07 376.65C1615.68 381.027 1612.87 385.787 1608.25 386.485L1572.92 391.875C1568.35 392.574 1564.28 388.946 1564.43 384.331H1564.44Z" fill="white"/>
<path d="M2126.48 551.816V881.515C2126.48 885.228 2129.15 888.404 2132.81 889.051L2298.45 918.353C2298.9 918.43 2299.34 918.473 2299.79 918.473H2451.64C2455.87 918.473 2459.3 915.041 2459.3 910.817V775.359C2459.3 771.289 2456.11 767.934 2452.05 767.712L2412.39 765.566C2408.01 765.328 2404.32 768.819 2404.32 773.213V830.949C2404.32 834.611 2401.73 837.762 2398.14 838.46L2313.13 855.116C2308.19 856.087 2303.66 852.102 2304.01 847.078L2321.19 596.668C2321.44 593.014 2324.24 590.051 2327.87 589.591L2395.71 581.067C2400.28 580.488 2404.32 584.056 2404.32 588.663V657.461C2404.32 661.42 2407.33 664.724 2411.28 665.082L2450.93 668.718C2455.42 669.127 2459.29 665.601 2459.29 661.097V545.795C2459.29 542.142 2456.7 538.991 2453.11 538.285L2328.23 513.606C2327.35 513.427 2326.44 513.41 2325.54 513.555L2132.93 544.245C2129.21 544.842 2126.47 548.043 2126.47 551.807L2126.48 551.816Z" fill="#FF551A"/>
<path d="M229.183 782.342L116.07 766.562C113.201 766.162 111.114 763.642 111.25 760.746L112.383 737.49C112.545 734.178 115.542 731.725 118.821 732.227L170.042 740.07C173.329 740.573 176.335 738.112 176.48 734.782L177.979 700.882C178.115 697.765 175.68 695.133 172.554 695.04L120.234 693.473C117.101 693.379 114.657 690.731 114.81 687.606L115.593 671.494C115.747 668.394 118.387 666.01 121.478 666.18L241.667 672.499C244.869 672.669 247.56 670.115 247.56 666.913V565.705C247.56 562.639 245.09 560.144 242.025 560.11L73.075 558.245C69.9583 558.211 67.4121 560.723 67.4121 563.84V860.941C67.4121 863.964 69.8135 866.442 72.8366 866.536L228.229 871.373C231.389 871.475 234.003 868.937 234.003 865.778V787.886C234.003 785.092 231.942 782.725 229.175 782.342H229.183Z" fill="#FF551A"/>
<path d="M1142.03 874.047L1015.72 856.428C1012.52 855.985 1010.18 853.166 1010.34 849.93L1011.61 823.966C1011.79 820.262 1015.13 817.528 1018.79 818.09L1075.98 826.844C1079.66 827.407 1083.01 824.656 1083.17 820.943L1084.85 783.083C1085 779.6 1082.28 776.662 1078.79 776.56L1020.38 774.814C1016.88 774.712 1014.15 771.757 1014.32 768.257L1015.2 750.264C1015.37 746.806 1018.32 744.141 1021.77 744.328L1155.98 751.388C1159.56 751.575 1162.56 748.731 1162.56 745.146V632.126C1162.56 628.703 1159.8 625.91 1156.38 625.876L967.726 623.798C964.243 623.764 961.407 626.566 961.407 630.049V961.808C961.407 965.189 964.09 967.948 967.462 968.059L1140.98 973.466C1144.5 973.577 1147.42 970.75 1147.42 967.216V880.237C1147.42 877.121 1145.12 874.481 1142.03 874.047Z" fill="#FF551A"/>
<path d="M1747.81 917.272L1627.3 897.745C1624.25 897.252 1622.02 894.126 1622.17 890.541L1623.38 861.759C1623.55 857.654 1626.74 854.622 1630.23 855.244L1684.8 864.943C1688.31 865.565 1691.5 862.516 1691.66 858.403L1693.26 816.438C1693.41 812.572 1690.81 809.319 1687.48 809.209L1631.75 807.276C1628.41 807.156 1625.8 803.886 1625.97 800.012L1626.8 780.068C1626.96 776.236 1629.77 773.281 1633.07 773.486L1761.11 781.311C1764.52 781.516 1767.38 778.365 1767.38 774.388V649.107C1767.38 645.309 1764.75 642.217 1761.48 642.175L1581.5 639.867C1578.18 639.825 1575.47 642.941 1575.47 646.799V1014.55C1575.47 1018.3 1578.02 1021.37 1581.25 1021.48L1746.79 1027.47C1750.16 1027.59 1752.94 1024.46 1752.94 1020.55V924.127C1752.94 920.67 1750.74 917.74 1747.8 917.263L1747.81 917.272Z" fill="#FF551A"/>
<path d="M553.833 557.198V1089.06C553.833 1094.29 558.295 1098.42 563.515 1098.02L616.899 1093.86C621.481 1093.5 625.057 1089.75 625.185 1085.15L627.791 990.864C627.919 986.325 631.401 982.595 635.923 982.161L807.854 965.726C809.242 965.59 810.579 965.138 811.762 964.397L924.764 893.76C927.396 892.117 928.988 889.239 928.988 886.139V636.529C928.988 633.941 927.873 631.488 925.931 629.776L856.393 568.668C854.902 567.357 853.012 566.574 851.028 566.446L563.379 548.205C558.201 547.873 553.824 551.986 553.824 557.172L553.833 557.198ZM700.301 873.834L640.649 876.925C635.412 877.198 631.052 872.94 631.197 867.703L636.298 682.939C636.434 677.873 640.735 673.921 645.793 674.211L727.662 678.894C732.959 679.201 736.842 683.995 736.033 689.241L708.715 866.229C708.068 870.436 704.551 873.613 700.293 873.834H700.301Z" fill="#FF551A"/>
<path d="M1191.7 630.44V966.449C1191.7 969.387 1194.07 971.763 1197.01 971.763H1278.04C1280.85 971.763 1283.18 969.575 1283.35 966.773L1288.87 875.997C1289.04 873.195 1291.36 871.006 1294.17 871.006H1313.5C1316.44 871.006 1318.82 873.382 1318.82 876.32V979.325C1318.82 982.467 1321.52 984.92 1324.65 984.613L1395.62 977.665C1398.34 977.401 1400.41 975.11 1400.41 972.376V902.821C1400.41 901.714 1400.06 900.632 1399.42 899.73L1377 868.409C1375.56 866.391 1375.7 863.649 1377.35 861.792L1407 828.343C1407.86 827.372 1408.34 826.121 1408.34 824.818V673.938C1408.34 672.644 1407.87 671.392 1407.01 670.421L1363.26 620.835C1362.2 619.643 1360.67 618.978 1359.08 619.038L1196.82 625.127C1193.97 625.237 1191.71 627.579 1191.71 630.432L1191.7 630.44ZM1352.61 824.043L1297.72 825.38C1294.61 825.456 1292.1 822.851 1292.29 819.742L1301.08 675.267C1301.25 672.507 1303.5 670.344 1306.26 670.276L1342.17 669.45C1345 669.382 1347.39 671.554 1347.59 674.389L1357.78 818.354C1358 821.377 1355.65 823.966 1352.61 824.043H1352.61Z" fill="#FF551A"/>
<path d="M1443.95 670.779V1009.33C1443.95 1012.2 1447.57 1014.7 1452.78 1015.44L1535.94 1027.26C1543.51 1028.33 1550.94 1025.31 1550.94 1021.15L1550.69 665.874C1550.69 662.102 1544.51 659.172 1537.45 659.589L1454.54 664.503C1448.5 664.861 1443.95 667.569 1443.95 670.788V670.779Z" fill="#FF551A"/>
<path d="M468.174 1125.33H23.8038C20.0484 1125.33 16.7613 1127.48 15.7906 1130.56L0.28363 1179.8C-1.12996 1184.28 2.84683 1188.68 8.30534 1188.68L474.629 1188.53C479.577 1188.53 483.417 1184.87 482.872 1180.69L476.426 1131.61C475.957 1128.04 472.406 1125.33 468.183 1125.33H468.174Z" fill="#383294"/>
<path d="M870.628 1125.26H675.519C673.87 1125.26 672.427 1127.39 672 1130.46L665.192 1179.44C664.571 1183.89 666.317 1188.27 668.714 1188.27L873.462 1188.12C875.635 1188.12 877.321 1184.48 877.082 1180.32L874.251 1131.5C874.046 1127.95 872.486 1125.26 870.632 1125.26H870.628Z" fill="#383294"/>
<path d="M2871.99 381.656H1907.48C1899.33 381.656 1892.2 383.802 1890.09 386.885L1856.42 436.114C1853.35 440.593 1861.98 444.996 1873.82 444.996L2885.99 444.842C2896.73 444.842 2905.07 441.181 2903.88 436.999L2889.89 387.924C2888.87 384.356 2881.16 381.648 2871.99 381.648V381.656Z" fill="#383294"/>
<path d="M708.017 381.656H92.6957C87.4927 381.656 82.9453 383.802 81.5999 386.885L60.1235 436.114C58.1649 440.593 63.666 444.996 71.2278 444.996L716.958 444.842C723.805 444.842 729.136 441.181 728.369 436.999L719.445 387.924C718.798 384.356 713.876 381.648 708.026 381.648L708.017 381.656Z" fill="#383294"/>
<path d="M1651.45 554.941L1596.7 562.239C1592.71 562.767 1589.75 563.567 1589.81 564.095L1596.38 619.634C1596.44 620.102 1598.89 620.23 1602.34 619.941L1657.59 615.368C1662.63 614.95 1667.48 613.869 1667.4 613.188" fill="#FF551A"/>
<path d="M2493.5 554.038V920.746C2493.5 923.846 2498.09 926.563 2504.68 927.363L2609.94 940.162C2619.52 941.329 2628.93 938.05 2628.93 933.545L2628.6 548.725C2628.6 544.646 2620.78 541.469 2611.84 541.921L2506.92 547.243C2499.28 547.626 2493.5 550.564 2493.5 554.047V554.038Z" fill="#FF551A"/>
<path d="M2003.32 769.279L1929.81 564.717C1928.79 561.864 1926.26 559.982 1923.44 559.982H1807.47C1803.69 559.982 1800.63 563.312 1800.63 567.425V1011.06C1800.63 1015.59 1804.32 1019.07 1808.44 1018.43L1935.44 998.647C1938.9 998.111 1941.43 994.824 1941.31 991.034L1936.6 837.046C1936.33 828.565 1947.24 826.3 1949.87 834.287L2011.86 1022.53C2012.83 1025.49 2015.41 1027.46 2018.3 1027.46H2072.59C2076.37 1027.46 2079.43 1024.13 2079.43 1020.02V548.81C2079.43 544.697 2076.37 541.367 2072.59 541.367H2025.93C2022.18 541.367 2019.13 544.646 2019.09 548.716L2016.53 766.648C2016.44 774.823 2006.06 776.875 2003.33 769.262L2003.32 769.279Z" fill="#FF551A"/>
<path d="M2679.08 553.936L2670.42 1045.58C2670.33 1050.79 2674.61 1055.02 2679.82 1054.85L2713.47 1053.78C2718.26 1053.62 2722.11 1049.78 2722.28 1044.99L2725.73 944.692C2725.89 940.042 2729.53 936.262 2734.16 935.921L2812.97 930.096C2817.02 929.798 2820.78 932.225 2822.19 936.04L2858.85 1035.83C2860.59 1040.55 2865.82 1042.97 2870.55 1041.23L3033.45 981.275C3038.07 979.58 3040.49 974.531 3038.95 969.864L2885.37 506.385C2883.88 501.897 2879.22 499.291 2874.62 500.39L2686.07 545.25C2682.02 546.212 2679.14 549.797 2679.07 553.953L2679.08 553.936ZM2728.72 857.867L2732.66 743.247C2733 733.249 2746.87 731.035 2750.32 740.419L2789.98 848.38C2791.97 853.788 2788.5 859.655 2782.8 860.524L2739.2 867.174C2733.56 868.034 2728.53 863.555 2728.72 857.858V857.867Z" fill="#FF551A"/>
<path d="M515.376 591.729V548.887C515.376 542.168 509.926 536.735 503.207 536.735H398.397C395.825 536.735 393.535 538.353 392.666 540.771L371.156 601.087C369.427 605.933 362.836 606.58 360.196 602.16L316.715 529.216C314.987 526.312 311.214 525.375 308.327 527.138L276.93 546.264C274.154 547.958 273.192 551.535 274.767 554.388L342.024 676.697C342.858 678.222 343.012 680.036 342.424 681.671L281.444 852.664C281.214 853.32 281.086 854.01 281.086 854.708V915.986C281.086 919.256 283.675 921.947 286.945 922.066L361.661 924.834C364.147 924.928 366.43 923.514 367.434 921.24C372.833 909.114 390.733 868.912 412.346 820.611C414.424 815.962 420.955 815.766 423.297 820.288C435.193 843.237 461.983 894.902 470.652 911.618C472.185 914.581 475.813 915.739 478.793 914.232L515.615 895.625C518.672 894.084 519.847 890.32 518.229 887.306L445.506 752.52C444.603 750.851 444.535 748.859 445.31 747.13C476.06 678.758 505.856 613.162 514.039 597.255C514.925 595.535 515.376 593.653 515.376 591.72V591.729Z" fill="#FF551A"/>
</g>
<mask id="path-25-inside-1_49_238" fill="white">
<path fill-rule="evenodd" clip-rule="evenodd" d="M2449.63 795.458C2438.37 796.338 2423.1 795.109 2407.43 791.846L2321.44 772.53L2328.09 766.951C2334.37 758.753 2348.17 741.953 2376.23 735.002C2404.75 727.986 2430.52 732.856 2450.5 738.652C2484.28 748.44 2518.5 773.846 2529.51 801.808L2599.38 723.488C2563.48 716.786 2549.74 702.449 2517.43 685.719C2451.19 651.555 2385.05 650.367 2331.89 663.042C2297.72 671.197 2258.83 696.274 2232.69 733.506C2200.74 779.099 2191.26 844.894 2211.2 905.172C2225.93 949.803 2266.49 983.962 2289.76 995.803C2338.3 1020.6 2393.99 1037.54 2460.47 1022.88C2489.88 1016.44 2509.51 1007.3 2526.02 994.184C2608.11 929.254 2533.92 846.606 2478.07 892.297C2487.42 896.91 2489.79 922.945 2469.35 937.076C2453.79 947.852 2437.8 951.485 2413.83 951.127C2402.88 950.918 2376.14 949.902 2345.59 931.647C2319.62 916.236 2303.97 885.789 2304.58 864.447L2302.78 855.755L2391 874.41C2406.74 877.316 2417.95 882.715 2428.07 887.802L2449.4 795.49L2449.63 795.458Z"/>
<path fill-rule="evenodd" clip-rule="evenodd" d="M1372.09 1188.71C1372.25 1145.94 1342.15 1112.64 1306.79 1116.43C1279.32 1119.35 1255.59 1141.49 1253.01 1162.87C1274.9 1164.11 1286.53 1183.27 1285.82 1199.75C1284.69 1226.5 1262.94 1248.72 1234.56 1260.01C1202.31 1272.77 1167.63 1271.48 1143.68 1255.55C1114.13 1236.11 1097.54 1209.74 1093.57 1178.94C1089.4 1145.84 1099.72 1106.76 1134.91 1077.67C1191 1031.13 1244.97 1049.94 1271.09 1051.5L1201.16 947.004C1185.54 973.934 1132.12 988.153 1086.58 1016.25C1012.83 1061.9 991.583 1132.48 991.196 1191.07C991.003 1220.37 1004.69 1266.66 1033.85 1298.23C1069.7 1336.88 1104.78 1353.46 1150.53 1357.5C1218.27 1363.46 1286.61 1333.91 1329.42 1287.96C1361.82 1253.1 1372 1220.43 1372.09 1188.71Z"/>
<path fill-rule="evenodd" clip-rule="evenodd" d="M1762.77 1046.4C1746.85 1029.81 1736.86 1006.58 1726.12 978.003C1718.35 957.37 1701.86 914.264 1689.18 875.967C1679.95 848.221 1671.38 817.712 1664.16 792.705C1656.87 767.242 1657.25 743.378 1658.29 730.106C1514.09 777.835 1414.11 838.535 1351.93 874.774C1333.78 885.332 1313.78 893.476 1306.03 894.562L1354.99 975.4C1380.13 950.855 1428.92 914.401 1463.1 893.931L1451.86 991.102C1447.7 1036.06 1440.72 1079.08 1384.26 1110.57C1420.94 1160.95 1417.46 1227.3 1417.46 1227.3C1454.35 1210.4 1528.63 1156.9 1534.23 1041.82C1534.23 1041.82 1620.65 1003.7 1620.67 1003.81L1621.33 1012.66C1625.93 1028.97 1637.67 1069.61 1635.87 1095.77C1668.68 1079.55 1729.06 1057.04 1762.67 1046.53L1762.77 1046.4ZM1538.36 975.15C1539.48 970.696 1540.03 967.948 1540.03 967.948C1544.06 918.829 1554.71 879.587 1567.59 844.679L1600.14 941.871L1603.33 948.045L1538.36 975.15Z"/>
<path fill-rule="evenodd" clip-rule="evenodd" d="M2147.38 724.088C2145.42 696.834 2152.32 671.475 2162.71 655.267C2120.67 653.608 2047.21 656.58 2001.02 661.888C2010.82 680.379 2011.43 699.691 2002.29 716.536C1991.6 736.386 1959.12 791.463 1959.12 791.463C1959.12 791.463 1920.59 754.349 1895.78 730.644C1882.08 717.462 1877.94 697.831 1881.59 678.271C1834.91 685.855 1763.29 701.929 1724.28 713.666C1737.27 728.456 1749.72 748.548 1757.78 777.853C1763.01 796.982 1769.95 824.119 1776.64 854.429C1784.48 889.686 1792.22 928.328 1799.58 965.975C1806.19 999.896 1804.67 1014.74 1799.52 1036.84C1827.52 1029.43 1870.36 1019.36 1908.3 1012.42C1892.11 992.971 1884.97 974.341 1878.95 948.004C1872.15 918.524 1850.82 819.296 1850.82 819.296L1860.22 832.499L1967.97 931.701L2043.52 809.376L2048.97 792.699C2048.97 792.699 2058.89 917.453 2058.88 917.339C2062.52 949.12 2058.89 972.162 2051.6 993.047C2093.63 989.598 2137.23 989.066 2181.96 988.374C2163.9 956.407 2164.12 933.145 2161.55 909.809C2157.41 871.129 2155.53 843.631 2152.35 806.792C2150.3 783.035 2149.5 757.476 2147.12 723.892L2147.38 724.088Z"/>
<path fill-rule="evenodd" clip-rule="evenodd" d="M2884.19 1048.55C2875.42 1025.74 2855.38 1011.24 2832.67 1013.26C2832.38 1025.26 2828.51 1034.17 2820.78 1040.36C2805.56 1052.72 2783.45 1046.64 2774.74 1043.33L2774.4 1043.37L2774.01 1043.08L2690.25 1004.87L2694.03 1000.39C2703.23 976.45 2738.19 884.436 2750 856.763C2766.17 818.838 2793.17 798.446 2810.81 790.051C2780.83 775.898 2710.94 746.312 2675.99 732.275C2675.03 751.111 2671.95 768.964 2665.14 785.832C2647.32 830.26 2627.22 883.256 2596.15 958.346C2585.57 983.988 2568.02 1014.56 2546.46 1031.51C2606.36 1056.93 2651.69 1077.87 2717.73 1105.67C2751.06 1119.71 2782.3 1132.98 2820.88 1130.6C2842.54 1129.31 2862.44 1118.85 2875.51 1101.81C2887.16 1086.35 2889.99 1064.24 2883.93 1048.36L2884.19 1048.55Z"/>
<path fill-rule="evenodd" clip-rule="evenodd" d="M3207.92 1169.94C3199.15 1147.12 3179.11 1132.62 3156.4 1134.64C3156.1 1146.65 3152.24 1155.55 3144.51 1161.75C3129.28 1174.1 3107.18 1168.02 3098.47 1164.71L3098.12 1164.76L3097.73 1164.47L3013.98 1126.25L3017.76 1121.77C3026.95 1097.84 3061.92 1005.82 3073.72 978.149C3089.9 940.224 3116.9 919.832 3134.54 911.437C3104.56 897.283 3034.67 867.697 2999.72 853.661C2998.76 872.496 2995.68 890.35 2988.87 907.218C2971.05 951.646 2950.94 1004.64 2919.88 1079.73C2909.3 1105.37 2891.75 1135.94 2870.19 1152.9C2930.09 1178.31 2975.42 1199.26 3041.46 1227.06C3074.78 1241.09 3106.03 1254.37 3144.61 1251.99C3166.27 1250.69 3186.17 1240.24 3199.23 1223.19C3210.89 1207.74 3213.72 1185.62 3207.66 1169.74L3207.92 1169.94Z"/>
<path fill-rule="evenodd" clip-rule="evenodd" d="M2707.88 1428.05C2715.71 1430.35 2712.47 1421.89 2711.53 1420.74C2705.27 1413.65 2703.71 1399.35 2694.73 1385.57C2688.47 1375.97 2683.46 1373.46 2674.49 1366.36C2671.88 1364.27 2668.02 1362.71 2665.94 1360.2C2660.61 1353.73 2658.21 1346.11 2642.98 1337.03C2638.08 1334.11 2620.13 1323.67 2617.31 1317.2C2613.66 1308.74 2609.59 1304.36 2604.17 1296.64C2598.22 1288.18 2589.98 1281.29 2583.09 1273.78C2578.5 1268.66 2573.8 1263.34 2568.48 1258.96C2560.45 1252.28 2552.2 1244.76 2542.81 1239.54C2533.84 1234.53 2524.76 1230.25 2517.04 1224.09C2512.45 1220.44 2508.69 1215.43 2504.94 1211.05C2495.23 1199.67 2484.38 1189.13 2474.26 1178.06C2470.82 1174.3 2466.12 1171.07 2461.95 1168.04C2458.3 1165.33 2454.85 1161.99 2450.89 1159.48C2439.52 1152.38 2426.58 1147.17 2412.91 1142.47C2400.81 1138.29 2388.08 1133.39 2373.26 1131.93C2356.77 1130.36 2339.97 1132.87 2325.99 1136.83C2307.11 1142.05 2294.07 1154.68 2283.42 1167.73C2279.77 1172.22 2276.54 1179.21 2271.42 1182.03C2263.28 1186.41 2251.7 1187.56 2242.21 1190.07C2222.17 1195.39 2202.04 1201.44 2185.45 1210.42C2171.78 1217.83 2158.94 1226.7 2148.93 1237.56C2134.95 1252.69 2130.15 1267.93 2105.94 1274.3C2103.96 1274.82 2101.56 1275.76 2099.47 1275.97C2061.28 1280.77 2039.89 1237.87 2034.47 1206.98C2031.34 1189.02 2033.11 1171.69 2031.13 1152.59C2030.71 1148 2030.71 1142.78 2029.87 1138.29C2029.56 1136.52 2028.2 1134.22 2028.41 1131.93C2029.14 1124.83 2048.24 1113.76 2043.86 1105.31C2042.08 1101.76 2021.11 1100.51 2015.79 1099.05C2000.24 1094.77 1986.89 1087.77 1970.71 1083.18C1965.7 1081.72 1959.44 1079.32 1953.81 1078.69C1949.95 1078.28 1944.32 1078.17 1941.39 1079.63C1939.2 1080.78 1937.43 1083.29 1934.4 1083.81C1927.1 1085.06 1916.14 1083.6 1908.63 1083.29C1895.07 1082.55 1863.97 1085.9 1858.44 1095.5C1857.29 1097.48 1857.61 1098.73 1858.23 1100.93C1853.43 1101.45 1848.95 1106.25 1846.65 1109.17C1841.75 1115.54 1839.87 1123.58 1841.85 1128.79C1842.69 1130.99 1844.77 1132.66 1846.03 1134.74C1843.31 1135.48 1840.81 1141.01 1842.06 1143.2C1844.98 1148.52 1854.48 1147.17 1863.35 1147.58C1868.77 1147.9 1875.97 1152.28 1880.04 1154.79C1886.3 1158.75 1890.16 1165.95 1896.01 1170.55C1903.73 1176.6 1921.78 1180.36 1922.51 1183.18C1926.79 1198.42 1936.49 1205.2 1936.59 1205.41C1938.26 1208.65 1937.53 1213.45 1938.16 1217.2C1939.62 1226.49 1941.18 1236.1 1943.27 1245.39C1949.11 1272.53 1957.36 1298.41 1968.52 1320.23C1969.36 1321.79 1969.67 1323.46 1970.5 1325.03C1972.59 1328.89 1975.3 1332.96 1977.6 1336.72L1978.54 1338.18C1979.06 1339.02 1979.69 1340.06 1980.21 1340.89C1980.73 1341.83 1981.04 1342.25 1981.46 1342.98C1981.77 1343.5 1982.19 1344.13 1982.4 1344.44C1982.71 1344.96 1982.82 1345.28 1983.03 1345.59C1986.68 1351.12 1990.33 1356.24 1994.61 1361.14C1998.89 1366.15 2003.79 1372 2008.9 1375.97C2029.35 1392.04 2052.83 1405.5 2082.36 1412.08C2094.25 1414.79 2106.04 1417.2 2117.31 1420.01C2121.49 1421.06 2125.55 1421.16 2129.52 1422.73C2129.73 1422.73 2130.46 1423.35 2130.77 1423.56C2137.03 1427.42 2142.35 1440.37 2146.84 1446.63C2149.76 1450.6 2154.56 1452.48 2158.53 1455.5C2163.22 1459.05 2168.23 1464.48 2171.26 1469.49C2177.1 1479.3 2180.75 1489.74 2184.82 1501.43C2188.89 1513.12 2193.48 1524.29 2197.24 1537.02C2200.47 1547.77 2205.79 1559.57 2206.52 1571.78C2207.57 1588.38 2204.54 1604.24 2207.15 1620.21C2211.22 1644.64 2216.44 1689.52 2210.91 1715.41C2209.55 1721.77 2204.85 1726.58 2203.29 1732.63C2202.04 1737.54 2200.99 1741.92 2200.26 1747.03C2199.95 1749.43 2194.84 1755.49 2191.39 1757.47C2186.91 1760.19 2158.32 1768.85 2157.17 1788.89C2156.75 1796.09 2152.58 1801.83 2173.97 1802.56C2195.98 1803.4 2231.46 1804.23 2237.09 1791.71C2241.16 1782.84 2237.09 1764.88 2242.31 1757.47C2245.23 1753.3 2247.22 1747.87 2247.42 1741.5C2247.84 1732.32 2246.59 1719.9 2245.76 1711.44C2244.61 1699.23 2244.82 1686.39 2244.4 1673.13C2244.19 1665.83 2243.46 1658.42 2244.82 1652.15C2247.32 1639.94 2255.77 1630.34 2257.23 1617.71C2259.01 1602.68 2254.31 1585.35 2257.23 1571.99C2267.67 1575.43 2275.91 1597.67 2281.13 1607.9C2284.88 1615.31 2292.92 1622.51 2295.94 1629.4C2304.08 1647.77 2311.59 1665.41 2319.11 1684.2C2322.24 1691.92 2326.41 1700.27 2328.71 1708.62C2329.96 1713.11 2329.12 1716.97 2329.96 1721.67C2330.58 1724.91 2328.08 1732.21 2324.32 1733.46C2296.36 1742.65 2287.18 1750.06 2289.89 1765.61C2291.25 1773.65 2305.33 1772.71 2313.68 1773.86C2324.85 1775.32 2365.33 1772.61 2366.58 1770.94C2370.55 1765.93 2373.78 1757.16 2371.59 1748.29C2370.86 1745.16 2368.77 1741.92 2368.25 1738.68C2367.31 1732.53 2371.9 1728.14 2369.61 1719.79C2367.1 1710.71 2361.68 1701.52 2358.34 1692.97C2351.45 1675.33 2345.3 1657.79 2338.31 1639.94C2334.03 1628.88 2328.39 1617.19 2324.95 1605.6C2321.61 1594.12 2323.59 1579.51 2319.32 1568.86C2315.87 1560.19 2308.36 1554.04 2304.19 1546.42C2301.58 1541.72 2300.74 1535.98 2299.07 1530.45C2296.36 1521.26 2293.23 1511.55 2292.08 1500.49C2291.77 1497.25 2290.41 1493.6 2290.83 1489.84C2291.04 1488.49 2292.29 1484.42 2293.44 1484C2298.13 1482.22 2313.89 1484.31 2319.21 1484.52C2336.11 1485.35 2354.06 1486.09 2371.28 1484.42C2405.81 1480.97 2428.66 1467.19 2454.85 1456.02C2457.98 1454.67 2469.98 1449.24 2473.95 1451.01V1451.33C2476.45 1455.92 2476.35 1465.94 2477.6 1471.68C2479.27 1479.51 2482.92 1487.76 2486.26 1494.54C2493.88 1510.09 2504.21 1524.91 2513.49 1539.21C2518.4 1546.73 2525.18 1554.04 2528.73 1562.91C2532.8 1573.24 2536.03 1590.46 2534.47 1604.14C2534.15 1607.06 2533.21 1611.34 2533.21 1614.58C2532.8 1639.52 2529.25 1663.11 2522.05 1683.36C2518.19 1694.01 2509.84 1702.05 2505.77 1712.69C2502.96 1720.1 2503.48 1717.81 2500.87 1725.32C2499.41 1729.5 2491.58 1732.11 2487.1 1732.94C2461.43 1738.06 2459.13 1744.32 2452.66 1763C2452.35 1763.94 2454.12 1766.66 2454.96 1767.18C2464.87 1773.34 2516.73 1778.45 2529.35 1770.31C2534.67 1766.87 2535.82 1758.72 2535.09 1751.31C2534.78 1748.39 2534.47 1741.92 2534.78 1739C2535.41 1733.46 2543.44 1728.04 2545.53 1722.92C2549.07 1714.05 2549.28 1708.62 2551.58 1698.81C2553.14 1692.44 2556.59 1685.76 2558.78 1679.71C2562.43 1670.11 2565.46 1660.5 2570.15 1651.74C2574.64 1643.28 2579.02 1634.62 2583.71 1626.06C2586.11 1621.88 2591.33 1616.35 2591.96 1611.24C2592.48 1607.06 2590.71 1596.83 2589.35 1593.7C2588.31 1591.2 2586.22 1589.32 2585.38 1586.19C2580.9 1567.61 2579.12 1547.88 2577.04 1527.32C2576.2 1519.49 2574.74 1509.05 2576.41 1502.37C2580.69 1504.98 2581.63 1509.99 2584.13 1514.37C2591.23 1526.9 2598.32 1540.47 2606.57 1552.16C2610.53 1557.69 2615.02 1561.34 2620.55 1565.21C2623.16 1566.98 2625.14 1569.8 2627.54 1571.68C2635.89 1578.36 2644.75 1584.62 2651.33 1592.97C2657.59 1600.9 2660.09 1616.04 2663.95 1626.48C2667.5 1636.18 2674.07 1644.95 2675.95 1656.33C2677.93 1668.54 2678.46 1681.69 2677.83 1693.7C2677.31 1704.13 2678.98 1718.75 2678.04 1728.45C2677.52 1733.36 2675.01 1738.27 2674.49 1743.17C2674.07 1747.56 2665.73 1756.95 2664.37 1760.29C2663.54 1762.38 2659.05 1763.53 2656.96 1764.78C2650.39 1768.85 2634.32 1766.24 2638.29 1791.6C2638.91 1795.36 2642.88 1794.84 2645.69 1796.82C2647.15 1797.87 2646.63 1800.68 2648.2 1801.62C2650.39 1802.98 2653.21 1804.44 2656.34 1804.86C2670.94 1806.95 2689.62 1804.86 2701.41 1799.33C2704.12 1798.08 2713.72 1792.13 2714.56 1789.83C2716.12 1785.34 2715.71 1779.39 2714.24 1774.28C2713.72 1772.61 2721.24 1753.71 2719.67 1744.74C2718.31 1737.43 2713.31 1732.21 2712.05 1724.7C2709.45 1709.46 2709.34 1683.47 2709.97 1666.56C2710.49 1651.42 2710.49 1635.24 2711.53 1619.27C2712.05 1611.76 2714.45 1601.42 2712.37 1594.01C2709.65 1584.31 2699.22 1578.57 2693.48 1571.36C2685.13 1560.82 2677.73 1547.36 2672.93 1533.58C2670.32 1526.17 2667.81 1517.92 2666.67 1509.68C2665.41 1499.97 2668.13 1488.8 2667.08 1478.57C2665.31 1461.03 2664.47 1443.92 2661.14 1428.47C2657.28 1410.72 2652.89 1393.5 2646.21 1378.26C2643.92 1373.15 2640.68 1367.61 2637.76 1362.6C2635.89 1359.47 2632.55 1356.45 2631.92 1353C2641.62 1349.77 2654.56 1361.87 2657.48 1368.76C2661.34 1377.84 2663.33 1383.48 2665.83 1393.29C2668.86 1405.5 2682.73 1420.43 2707.67 1427.63L2707.88 1428.05Z"/>
</mask>
<path fill-rule="evenodd" clip-rule="evenodd" d="M2449.63 795.458C2438.37 796.338 2423.1 795.109 2407.43 791.846L2321.44 772.53L2328.09 766.951C2334.37 758.753 2348.17 741.953 2376.23 735.002C2404.75 727.986 2430.52 732.856 2450.5 738.652C2484.28 748.44 2518.5 773.846 2529.51 801.808L2599.38 723.488C2563.48 716.786 2549.74 702.449 2517.43 685.719C2451.19 651.555 2385.05 650.367 2331.89 663.042C2297.72 671.197 2258.83 696.274 2232.69 733.506C2200.74 779.099 2191.26 844.894 2211.2 905.172C2225.93 949.803 2266.49 983.962 2289.76 995.803C2338.3 1020.6 2393.99 1037.54 2460.47 1022.88C2489.88 1016.44 2509.51 1007.3 2526.02 994.184C2608.11 929.254 2533.92 846.606 2478.07 892.297C2487.42 896.91 2489.79 922.945 2469.35 937.076C2453.79 947.852 2437.8 951.485 2413.83 951.127C2402.88 950.918 2376.14 949.902 2345.59 931.647C2319.62 916.236 2303.97 885.789 2304.58 864.447L2302.78 855.755L2391 874.41C2406.74 877.316 2417.95 882.715 2428.07 887.802L2449.4 795.49L2449.63 795.458Z" fill="#FFB010"/>
<path fill-rule="evenodd" clip-rule="evenodd" d="M1372.09 1188.71C1372.25 1145.94 1342.15 1112.64 1306.79 1116.43C1279.32 1119.35 1255.59 1141.49 1253.01 1162.87C1274.9 1164.11 1286.53 1183.27 1285.82 1199.75C1284.69 1226.5 1262.94 1248.72 1234.56 1260.01C1202.31 1272.77 1167.63 1271.48 1143.68 1255.55C1114.13 1236.11 1097.54 1209.74 1093.57 1178.94C1089.4 1145.84 1099.72 1106.76 1134.91 1077.67C1191 1031.13 1244.97 1049.94 1271.09 1051.5L1201.16 947.004C1185.54 973.934 1132.12 988.153 1086.58 1016.25C1012.83 1061.9 991.583 1132.48 991.196 1191.07C991.003 1220.37 1004.69 1266.66 1033.85 1298.23C1069.7 1336.88 1104.78 1353.46 1150.53 1357.5C1218.27 1363.46 1286.61 1333.91 1329.42 1287.96C1361.82 1253.1 1372 1220.43 1372.09 1188.71Z" fill="#FFB010"/>
<path fill-rule="evenodd" clip-rule="evenodd" d="M1762.77 1046.4C1746.85 1029.81 1736.86 1006.58 1726.12 978.003C1718.35 957.37 1701.86 914.264 1689.18 875.967C1679.95 848.221 1671.38 817.712 1664.16 792.705C1656.87 767.242 1657.25 743.378 1658.29 730.106C1514.09 777.835 1414.11 838.535 1351.93 874.774C1333.78 885.332 1313.78 893.476 1306.03 894.562L1354.99 975.4C1380.13 950.855 1428.92 914.401 1463.1 893.931L1451.86 991.102C1447.7 1036.06 1440.72 1079.08 1384.26 1110.57C1420.94 1160.95 1417.46 1227.3 1417.46 1227.3C1454.35 1210.4 1528.63 1156.9 1534.23 1041.82C1534.23 1041.82 1620.65 1003.7 1620.67 1003.81L1621.33 1012.66C1625.93 1028.97 1637.67 1069.61 1635.87 1095.77C1668.68 1079.55 1729.06 1057.04 1762.67 1046.53L1762.77 1046.4ZM1538.36 975.15C1539.48 970.696 1540.03 967.948 1540.03 967.948C1544.06 918.829 1554.71 879.587 1567.59 844.679L1600.14 941.871L1603.33 948.045L1538.36 975.15Z" fill="#FFB010"/>
<path fill-rule="evenodd" clip-rule="evenodd" d="M2147.38 724.088C2145.42 696.834 2152.32 671.475 2162.71 655.267C2120.67 653.608 2047.21 656.58 2001.02 661.888C2010.82 680.379 2011.43 699.691 2002.29 716.536C1991.6 736.386 1959.12 791.463 1959.12 791.463C1959.12 791.463 1920.59 754.349 1895.78 730.644C1882.08 717.462 1877.94 697.831 1881.59 678.271C1834.91 685.855 1763.29 701.929 1724.28 713.666C1737.27 728.456 1749.72 748.548 1757.78 777.853C1763.01 796.982 1769.95 824.119 1776.64 854.429C1784.48 889.686 1792.22 928.328 1799.58 965.975C1806.19 999.896 1804.67 1014.74 1799.52 1036.84C1827.52 1029.43 1870.36 1019.36 1908.3 1012.42C1892.11 992.971 1884.97 974.341 1878.95 948.004C1872.15 918.524 1850.82 819.296 1850.82 819.296L1860.22 832.499L1967.97 931.701L2043.52 809.376L2048.97 792.699C2048.97 792.699 2058.89 917.453 2058.88 917.339C2062.52 949.12 2058.89 972.162 2051.6 993.047C2093.63 989.598 2137.23 989.066 2181.96 988.374C2163.9 956.407 2164.12 933.145 2161.55 909.809C2157.41 871.129 2155.53 843.631 2152.35 806.792C2150.3 783.035 2149.5 757.476 2147.12 723.892L2147.38 724.088Z" fill="#FFB010"/>
<path fill-rule="evenodd" clip-rule="evenodd" d="M2884.19 1048.55C2875.42 1025.74 2855.38 1011.24 2832.67 1013.26C2832.38 1025.26 2828.51 1034.17 2820.78 1040.36C2805.56 1052.72 2783.45 1046.64 2774.74 1043.33L2774.4 1043.37L2774.01 1043.08L2690.25 1004.87L2694.03 1000.39C2703.23 976.45 2738.19 884.436 2750 856.763C2766.17 818.838 2793.17 798.446 2810.81 790.051C2780.83 775.898 2710.94 746.312 2675.99 732.275C2675.03 751.111 2671.95 768.964 2665.14 785.832C2647.32 830.26 2627.22 883.256 2596.15 958.346C2585.57 983.988 2568.02 1014.56 2546.46 1031.51C2606.36 1056.93 2651.69 1077.87 2717.73 1105.67C2751.06 1119.71 2782.3 1132.98 2820.88 1130.6C2842.54 1129.31 2862.44 1118.85 2875.51 1101.81C2887.16 1086.35 2889.99 1064.24 2883.93 1048.36L2884.19 1048.55Z" fill="#FFB010"/>
<path fill-rule="evenodd" clip-rule="evenodd" d="M3207.92 1169.94C3199.15 1147.12 3179.11 1132.62 3156.4 1134.64C3156.1 1146.65 3152.24 1155.55 3144.51 1161.75C3129.28 1174.1 3107.18 1168.02 3098.47 1164.71L3098.12 1164.76L3097.73 1164.47L3013.98 1126.25L3017.76 1121.77C3026.95 1097.84 3061.92 1005.82 3073.72 978.149C3089.9 940.224 3116.9 919.832 3134.54 911.437C3104.56 897.283 3034.67 867.697 2999.72 853.661C2998.76 872.496 2995.68 890.35 2988.87 907.218C2971.05 951.646 2950.94 1004.64 2919.88 1079.73C2909.3 1105.37 2891.75 1135.94 2870.19 1152.9C2930.09 1178.31 2975.42 1199.26 3041.46 1227.06C3074.78 1241.09 3106.03 1254.37 3144.61 1251.99C3166.27 1250.69 3186.17 1240.24 3199.23 1223.19C3210.89 1207.74 3213.72 1185.62 3207.66 1169.74L3207.92 1169.94Z" fill="#FFB010"/>
<path fill-rule="evenodd" clip-rule="evenodd" d="M2707.88 1428.05C2715.71 1430.35 2712.47 1421.89 2711.53 1420.74C2705.27 1413.65 2703.71 1399.35 2694.73 1385.57C2688.47 1375.97 2683.46 1373.46 2674.49 1366.36C2671.88 1364.27 2668.02 1362.71 2665.94 1360.2C2660.61 1353.73 2658.21 1346.11 2642.98 1337.03C2638.08 1334.11 2620.13 1323.67 2617.31 1317.2C2613.66 1308.74 2609.59 1304.36 2604.17 1296.64C2598.22 1288.18 2589.98 1281.29 2583.09 1273.78C2578.5 1268.66 2573.8 1263.34 2568.48 1258.96C2560.45 1252.28 2552.2 1244.76 2542.81 1239.54C2533.84 1234.53 2524.76 1230.25 2517.04 1224.09C2512.45 1220.44 2508.69 1215.43 2504.94 1211.05C2495.23 1199.67 2484.38 1189.13 2474.26 1178.06C2470.82 1174.3 2466.12 1171.07 2461.95 1168.04C2458.3 1165.33 2454.85 1161.99 2450.89 1159.48C2439.52 1152.38 2426.58 1147.17 2412.91 1142.47C2400.81 1138.29 2388.08 1133.39 2373.26 1131.93C2356.77 1130.36 2339.97 1132.87 2325.99 1136.83C2307.11 1142.05 2294.07 1154.68 2283.42 1167.73C2279.77 1172.22 2276.54 1179.21 2271.42 1182.03C2263.28 1186.41 2251.7 1187.56 2242.21 1190.07C2222.17 1195.39 2202.04 1201.44 2185.45 1210.42C2171.78 1217.83 2158.94 1226.7 2148.93 1237.56C2134.95 1252.69 2130.15 1267.93 2105.94 1274.3C2103.96 1274.82 2101.56 1275.76 2099.47 1275.97C2061.28 1280.77 2039.89 1237.87 2034.47 1206.98C2031.34 1189.02 2033.11 1171.69 2031.13 1152.59C2030.71 1148 2030.71 1142.78 2029.87 1138.29C2029.56 1136.52 2028.2 1134.22 2028.41 1131.93C2029.14 1124.83 2048.24 1113.76 2043.86 1105.31C2042.08 1101.76 2021.11 1100.51 2015.79 1099.05C2000.24 1094.77 1986.89 1087.77 1970.71 1083.18C1965.7 1081.72 1959.44 1079.32 1953.81 1078.69C1949.95 1078.28 1944.32 1078.17 1941.39 1079.63C1939.2 1080.78 1937.43 1083.29 1934.4 1083.81C1927.1 1085.06 1916.14 1083.6 1908.63 1083.29C1895.07 1082.55 1863.97 1085.9 1858.44 1095.5C1857.29 1097.48 1857.61 1098.73 1858.23 1100.93C1853.43 1101.45 1848.95 1106.25 1846.65 1109.17C1841.75 1115.54 1839.87 1123.58 1841.85 1128.79C1842.69 1130.99 1844.77 1132.66 1846.03 1134.74C1843.31 1135.48 1840.81 1141.01 1842.06 1143.2C1844.98 1148.52 1854.48 1147.17 1863.35 1147.58C1868.77 1147.9 1875.97 1152.28 1880.04 1154.79C1886.3 1158.75 1890.16 1165.95 1896.01 1170.55C1903.73 1176.6 1921.78 1180.36 1922.51 1183.18C1926.79 1198.42 1936.49 1205.2 1936.59 1205.41C1938.26 1208.65 1937.53 1213.45 1938.16 1217.2C1939.62 1226.49 1941.18 1236.1 1943.27 1245.39C1949.11 1272.53 1957.36 1298.41 1968.52 1320.23C1969.36 1321.79 1969.67 1323.46 1970.5 1325.03C1972.59 1328.89 1975.3 1332.96 1977.6 1336.72L1978.54 1338.18C1979.06 1339.02 1979.69 1340.06 1980.21 1340.89C1980.73 1341.83 1981.04 1342.25 1981.46 1342.98C1981.77 1343.5 1982.19 1344.13 1982.4 1344.44C1982.71 1344.96 1982.82 1345.28 1983.03 1345.59C1986.68 1351.12 1990.33 1356.24 1994.61 1361.14C1998.89 1366.15 2003.79 1372 2008.9 1375.97C2029.35 1392.04 2052.83 1405.5 2082.36 1412.08C2094.25 1414.79 2106.04 1417.2 2117.31 1420.01C2121.49 1421.06 2125.55 1421.16 2129.52 1422.73C2129.73 1422.73 2130.46 1423.35 2130.77 1423.56C2137.03 1427.42 2142.35 1440.37 2146.84 1446.63C2149.76 1450.6 2154.56 1452.48 2158.53 1455.5C2163.22 1459.05 2168.23 1464.48 2171.26 1469.49C2177.1 1479.3 2180.75 1489.74 2184.82 1501.43C2188.89 1513.12 2193.48 1524.29 2197.24 1537.02C2200.47 1547.77 2205.79 1559.57 2206.52 1571.78C2207.57 1588.38 2204.54 1604.24 2207.15 1620.21C2211.22 1644.64 2216.44 1689.52 2210.91 1715.41C2209.55 1721.77 2204.85 1726.58 2203.29 1732.63C2202.04 1737.54 2200.99 1741.92 2200.26 1747.03C2199.95 1749.43 2194.84 1755.49 2191.39 1757.47C2186.91 1760.19 2158.32 1768.85 2157.17 1788.89C2156.75 1796.09 2152.58 1801.83 2173.97 1802.56C2195.98 1803.4 2231.46 1804.23 2237.09 1791.71C2241.16 1782.84 2237.09 1764.88 2242.31 1757.47C2245.23 1753.3 2247.22 1747.87 2247.42 1741.5C2247.84 1732.32 2246.59 1719.9 2245.76 1711.44C2244.61 1699.23 2244.82 1686.39 2244.4 1673.13C2244.19 1665.83 2243.46 1658.42 2244.82 1652.15C2247.32 1639.94 2255.77 1630.34 2257.23 1617.71C2259.01 1602.68 2254.31 1585.35 2257.23 1571.99C2267.67 1575.43 2275.91 1597.67 2281.13 1607.9C2284.88 1615.31 2292.92 1622.51 2295.94 1629.4C2304.08 1647.77 2311.59 1665.41 2319.11 1684.2C2322.24 1691.92 2326.41 1700.27 2328.71 1708.62C2329.96 1713.11 2329.12 1716.97 2329.96 1721.67C2330.58 1724.91 2328.08 1732.21 2324.32 1733.46C2296.36 1742.65 2287.18 1750.06 2289.89 1765.61C2291.25 1773.65 2305.33 1772.71 2313.68 1773.86C2324.85 1775.32 2365.33 1772.61 2366.58 1770.94C2370.55 1765.93 2373.78 1757.16 2371.59 1748.29C2370.86 1745.16 2368.77 1741.92 2368.25 1738.68C2367.31 1732.53 2371.9 1728.14 2369.61 1719.79C2367.1 1710.71 2361.68 1701.52 2358.34 1692.97C2351.45 1675.33 2345.3 1657.79 2338.31 1639.94C2334.03 1628.88 2328.39 1617.19 2324.95 1605.6C2321.61 1594.12 2323.59 1579.51 2319.32 1568.86C2315.87 1560.19 2308.36 1554.04 2304.19 1546.42C2301.58 1541.72 2300.74 1535.98 2299.07 1530.45C2296.36 1521.26 2293.23 1511.55 2292.08 1500.49C2291.77 1497.25 2290.41 1493.6 2290.83 1489.84C2291.04 1488.49 2292.29 1484.42 2293.44 1484C2298.13 1482.22 2313.89 1484.31 2319.21 1484.52C2336.11 1485.35 2354.06 1486.09 2371.28 1484.42C2405.81 1480.97 2428.66 1467.19 2454.85 1456.02C2457.98 1454.67 2469.98 1449.24 2473.95 1451.01V1451.33C2476.45 1455.92 2476.35 1465.94 2477.6 1471.68C2479.27 1479.51 2482.92 1487.76 2486.26 1494.54C2493.88 1510.09 2504.21 1524.91 2513.49 1539.21C2518.4 1546.73 2525.18 1554.04 2528.73 1562.91C2532.8 1573.24 2536.03 1590.46 2534.47 1604.14C2534.15 1607.06 2533.21 1611.34 2533.21 1614.58C2532.8 1639.52 2529.25 1663.11 2522.05 1683.36C2518.19 1694.01 2509.84 1702.05 2505.77 1712.69C2502.96 1720.1 2503.48 1717.81 2500.87 1725.32C2499.41 1729.5 2491.58 1732.11 2487.1 1732.94C2461.43 1738.06 2459.13 1744.32 2452.66 1763C2452.35 1763.94 2454.12 1766.66 2454.96 1767.18C2464.87 1773.34 2516.73 1778.45 2529.35 1770.31C2534.67 1766.87 2535.82 1758.72 2535.09 1751.31C2534.78 1748.39 2534.47 1741.92 2534.78 1739C2535.41 1733.46 2543.44 1728.04 2545.53 1722.92C2549.07 1714.05 2549.28 1708.62 2551.58 1698.81C2553.14 1692.44 2556.59 1685.76 2558.78 1679.71C2562.43 1670.11 2565.46 1660.5 2570.15 1651.74C2574.64 1643.28 2579.02 1634.62 2583.71 1626.06C2586.11 1621.88 2591.33 1616.35 2591.96 1611.24C2592.48 1607.06 2590.71 1596.83 2589.35 1593.7C2588.31 1591.2 2586.22 1589.32 2585.38 1586.19C2580.9 1567.61 2579.12 1547.88 2577.04 1527.32C2576.2 1519.49 2574.74 1509.05 2576.41 1502.37C2580.69 1504.98 2581.63 1509.99 2584.13 1514.37C2591.23 1526.9 2598.32 1540.47 2606.57 1552.16C2610.53 1557.69 2615.02 1561.34 2620.55 1565.21C2623.16 1566.98 2625.14 1569.8 2627.54 1571.68C2635.89 1578.36 2644.75 1584.62 2651.33 1592.97C2657.59 1600.9 2660.09 1616.04 2663.95 1626.48C2667.5 1636.18 2674.07 1644.95 2675.95 1656.33C2677.93 1668.54 2678.46 1681.69 2677.83 1693.7C2677.31 1704.13 2678.98 1718.75 2678.04 1728.45C2677.52 1733.36 2675.01 1738.27 2674.49 1743.17C2674.07 1747.56 2665.73 1756.95 2664.37 1760.29C2663.54 1762.38 2659.05 1763.53 2656.96 1764.78C2650.39 1768.85 2634.32 1766.24 2638.29 1791.6C2638.91 1795.36 2642.88 1794.84 2645.69 1796.82C2647.15 1797.87 2646.63 1800.68 2648.2 1801.62C2650.39 1802.98 2653.21 1804.44 2656.34 1804.86C2670.94 1806.95 2689.62 1804.86 2701.41 1799.33C2704.12 1798.08 2713.72 1792.13 2714.56 1789.83C2716.12 1785.34 2715.71 1779.39 2714.24 1774.28C2713.72 1772.61 2721.24 1753.71 2719.67 1744.74C2718.31 1737.43 2713.31 1732.21 2712.05 1724.7C2709.45 1709.46 2709.34 1683.47 2709.97 1666.56C2710.49 1651.42 2710.49 1635.24 2711.53 1619.27C2712.05 1611.76 2714.45 1601.42 2712.37 1594.01C2709.65 1584.31 2699.22 1578.57 2693.48 1571.36C2685.13 1560.82 2677.73 1547.36 2672.93 1533.58C2670.32 1526.17 2667.81 1517.92 2666.67 1509.68C2665.41 1499.97 2668.13 1488.8 2667.08 1478.57C2665.31 1461.03 2664.47 1443.92 2661.14 1428.47C2657.28 1410.72 2652.89 1393.5 2646.21 1378.26C2643.92 1373.15 2640.68 1367.61 2637.76 1362.6C2635.89 1359.47 2632.55 1356.45 2631.92 1353C2641.62 1349.77 2654.56 1361.87 2657.48 1368.76C2661.34 1377.84 2663.33 1383.48 2665.83 1393.29C2668.86 1405.5 2682.73 1420.43 2707.67 1427.63L2707.88 1428.05Z" fill="#FFB010"/>
<path fill-rule="evenodd" clip-rule="evenodd" d="M2449.63 795.458C2438.37 796.338 2423.1 795.109 2407.43 791.846L2321.44 772.53L2328.09 766.951C2334.37 758.753 2348.17 741.953 2376.23 735.002C2404.75 727.986 2430.52 732.856 2450.5 738.652C2484.28 748.44 2518.5 773.846 2529.51 801.808L2599.38 723.488C2563.48 716.786 2549.74 702.449 2517.43 685.719C2451.19 651.555 2385.05 650.367 2331.89 663.042C2297.72 671.197 2258.83 696.274 2232.69 733.506C2200.74 779.099 2191.26 844.894 2211.2 905.172C2225.93 949.803 2266.49 983.962 2289.76 995.803C2338.3 1020.6 2393.99 1037.54 2460.47 1022.88C2489.88 1016.44 2509.51 1007.3 2526.02 994.184C2608.11 929.254 2533.92 846.606 2478.07 892.297C2487.42 896.91 2489.79 922.945 2469.35 937.076C2453.79 947.852 2437.8 951.485 2413.83 951.127C2402.88 950.918 2376.14 949.902 2345.59 931.647C2319.62 916.236 2303.97 885.789 2304.58 864.447L2302.78 855.755L2391 874.41C2406.74 877.316 2417.95 882.715 2428.07 887.802L2449.4 795.49L2449.63 795.458Z" stroke="#8D5200" stroke-width="36" mask="url(#path-25-inside-1_49_238)"/>
<path fill-rule="evenodd" clip-rule="evenodd" d="M1372.09 1188.71C1372.25 1145.94 1342.15 1112.64 1306.79 1116.43C1279.32 1119.35 1255.59 1141.49 1253.01 1162.87C1274.9 1164.11 1286.53 1183.27 1285.82 1199.75C1284.69 1226.5 1262.94 1248.72 1234.56 1260.01C1202.31 1272.77 1167.63 1271.48 1143.68 1255.55C1114.13 1236.11 1097.54 1209.74 1093.57 1178.94C1089.4 1145.84 1099.72 1106.76 1134.91 1077.67C1191 1031.13 1244.97 1049.94 1271.09 1051.5L1201.16 947.004C1185.54 973.934 1132.12 988.153 1086.58 1016.25C1012.83 1061.9 991.583 1132.48 991.196 1191.07C991.003 1220.37 1004.69 1266.66 1033.85 1298.23C1069.7 1336.88 1104.78 1353.46 1150.53 1357.5C1218.27 1363.46 1286.61 1333.91 1329.42 1287.96C1361.82 1253.1 1372 1220.43 1372.09 1188.71Z" stroke="#8D5200" stroke-width="36" mask="url(#path-25-inside-1_49_238)"/>
<path fill-rule="evenodd" clip-rule="evenodd" d="M1762.77 1046.4C1746.85 1029.81 1736.86 1006.58 1726.12 978.003C1718.35 957.37 1701.86 914.264 1689.18 875.967C1679.95 848.221 1671.38 817.712 1664.16 792.705C1656.87 767.242 1657.25 743.378 1658.29 730.106C1514.09 777.835 1414.11 838.535 1351.93 874.774C1333.78 885.332 1313.78 893.476 1306.03 894.562L1354.99 975.4C1380.13 950.855 1428.92 914.401 1463.1 893.931L1451.86 991.102C1447.7 1036.06 1440.72 1079.08 1384.26 1110.57C1420.94 1160.95 1417.46 1227.3 1417.46 1227.3C1454.35 1210.4 1528.63 1156.9 1534.23 1041.82C1534.23 1041.82 1620.65 1003.7 1620.67 1003.81L1621.33 1012.66C1625.93 1028.97 1637.67 1069.61 1635.87 1095.77C1668.68 1079.55 1729.06 1057.04 1762.67 1046.53L1762.77 1046.4ZM1538.36 975.15C1539.48 970.696 1540.03 967.948 1540.03 967.948C1544.06 918.829 1554.71 879.587 1567.59 844.679L1600.14 941.871L1603.33 948.045L1538.36 975.15Z" stroke="#8D5200" stroke-width="36" mask="url(#path-25-inside-1_49_238)"/>
<path fill-rule="evenodd" clip-rule="evenodd" d="M2147.38 724.088C2145.42 696.834 2152.32 671.475 2162.71 655.267C2120.67 653.608 2047.21 656.58 2001.02 661.888C2010.82 680.379 2011.43 699.691 2002.29 716.536C1991.6 736.386 1959.12 791.463 1959.12 791.463C1959.12 791.463 1920.59 754.349 1895.78 730.644C1882.08 717.462 1877.94 697.831 1881.59 678.271C1834.91 685.855 1763.29 701.929 1724.28 713.666C1737.27 728.456 1749.72 748.548 1757.78 777.853C1763.01 796.982 1769.95 824.119 1776.64 854.429C1784.48 889.686 1792.22 928.328 1799.58 965.975C1806.19 999.896 1804.67 1014.74 1799.52 1036.84C1827.52 1029.43 1870.36 1019.36 1908.3 1012.42C1892.11 992.971 1884.97 974.341 1878.95 948.004C1872.15 918.524 1850.82 819.296 1850.82 819.296L1860.22 832.499L1967.97 931.701L2043.52 809.376L2048.97 792.699C2048.97 792.699 2058.89 917.453 2058.88 917.339C2062.52 949.12 2058.89 972.162 2051.6 993.047C2093.63 989.598 2137.23 989.066 2181.96 988.374C2163.9 956.407 2164.12 933.145 2161.55 909.809C2157.41 871.129 2155.53 843.631 2152.35 806.792C2150.3 783.035 2149.5 757.476 2147.12 723.892L2147.38 724.088Z" stroke="#8D5200" stroke-width="36" mask="url(#path-25-inside-1_49_238)"/>
<path fill-rule="evenodd" clip-rule="evenodd" d="M2884.19 1048.55C2875.42 1025.74 2855.38 1011.24 2832.67 1013.26C2832.38 1025.26 2828.51 1034.17 2820.78 1040.36C2805.56 1052.72 2783.45 1046.64 2774.74 1043.33L2774.4 1043.37L2774.01 1043.08L2690.25 1004.87L2694.03 1000.39C2703.23 976.45 2738.19 884.436 2750 856.763C2766.17 818.838 2793.17 798.446 2810.81 790.051C2780.83 775.898 2710.94 746.312 2675.99 732.275C2675.03 751.111 2671.95 768.964 2665.14 785.832C2647.32 830.26 2627.22 883.256 2596.15 958.346C2585.57 983.988 2568.02 1014.56 2546.46 1031.51C2606.36 1056.93 2651.69 1077.87 2717.73 1105.67C2751.06 1119.71 2782.3 1132.98 2820.88 1130.6C2842.54 1129.31 2862.44 1118.85 2875.51 1101.81C2887.16 1086.35 2889.99 1064.24 2883.93 1048.36L2884.19 1048.55Z" stroke="#8D5200" stroke-width="36" mask="url(#path-25-inside-1_49_238)"/>
<path fill-rule="evenodd" clip-rule="evenodd" d="M3207.92 1169.94C3199.15 1147.12 3179.11 1132.62 3156.4 1134.64C3156.1 1146.65 3152.24 1155.55 3144.51 1161.75C3129.28 1174.1 3107.18 1168.02 3098.47 1164.71L3098.12 1164.76L3097.73 1164.47L3013.98 1126.25L3017.76 1121.77C3026.95 1097.84 3061.92 1005.82 3073.72 978.149C3089.9 940.224 3116.9 919.832 3134.54 911.437C3104.56 897.283 3034.67 867.697 2999.72 853.661C2998.76 872.496 2995.68 890.35 2988.87 907.218C2971.05 951.646 2950.94 1004.64 2919.88 1079.73C2909.3 1105.37 2891.75 1135.94 2870.19 1152.9C2930.09 1178.31 2975.42 1199.26 3041.46 1227.06C3074.78 1241.09 3106.03 1254.37 3144.61 1251.99C3166.27 1250.69 3186.17 1240.24 3199.23 1223.19C3210.89 1207.74 3213.72 1185.62 3207.66 1169.74L3207.92 1169.94Z" stroke="#8D5200" stroke-width="36" mask="url(#path-25-inside-1_49_238)"/>
<path fill-rule="evenodd" clip-rule="evenodd" d="M2707.88 1428.05C2715.71 1430.35 2712.47 1421.89 2711.53 1420.74C2705.27 1413.65 2703.71 1399.35 2694.73 1385.57C2688.47 1375.97 2683.46 1373.46 2674.49 1366.36C2671.88 1364.27 2668.02 1362.71 2665.94 1360.2C2660.61 1353.73 2658.21 1346.11 2642.98 1337.03C2638.08 1334.11 2620.13 1323.67 2617.31 1317.2C2613.66 1308.74 2609.59 1304.36 2604.17 1296.64C2598.22 1288.18 2589.98 1281.29 2583.09 1273.78C2578.5 1268.66 2573.8 1263.34 2568.48 1258.96C2560.45 1252.28 2552.2 1244.76 2542.81 1239.54C2533.84 1234.53 2524.76 1230.25 2517.04 1224.09C2512.45 1220.44 2508.69 1215.43 2504.94 1211.05C2495.23 1199.67 2484.38 1189.13 2474.26 1178.06C2470.82 1174.3 2466.12 1171.07 2461.95 1168.04C2458.3 1165.33 2454.85 1161.99 2450.89 1159.48C2439.52 1152.38 2426.58 1147.17 2412.91 1142.47C2400.81 1138.29 2388.08 1133.39 2373.26 1131.93C2356.77 1130.36 2339.97 1132.87 2325.99 1136.83C2307.11 1142.05 2294.07 1154.68 2283.42 1167.73C2279.77 1172.22 2276.54 1179.21 2271.42 1182.03C2263.28 1186.41 2251.7 1187.56 2242.21 1190.07C2222.17 1195.39 2202.04 1201.44 2185.45 1210.42C2171.78 1217.83 2158.94 1226.7 2148.93 1237.56C2134.95 1252.69 2130.15 1267.93 2105.94 1274.3C2103.96 1274.82 2101.56 1275.76 2099.47 1275.97C2061.28 1280.77 2039.89 1237.87 2034.47 1206.98C2031.34 1189.02 2033.11 1171.69 2031.13 1152.59C2030.71 1148 2030.71 1142.78 2029.87 1138.29C2029.56 1136.52 2028.2 1134.22 2028.41 1131.93C2029.14 1124.83 2048.24 1113.76 2043.86 1105.31C2042.08 1101.76 2021.11 1100.51 2015.79 1099.05C2000.24 1094.77 1986.89 1087.77 1970.71 1083.18C1965.7 1081.72 1959.44 1079.32 1953.81 1078.69C1949.95 1078.28 1944.32 1078.17 1941.39 1079.63C1939.2 1080.78 1937.43 1083.29 1934.4 1083.81C1927.1 1085.06 1916.14 1083.6 1908.63 1083.29C1895.07 1082.55 1863.97 1085.9 1858.44 1095.5C1857.29 1097.48 1857.61 1098.73 1858.23 1100.93C1853.43 1101.45 1848.95 1106.25 1846.65 1109.17C1841.75 1115.54 1839.87 1123.58 1841.85 1128.79C1842.69 1130.99 1844.77 1132.66 1846.03 1134.74C1843.31 1135.48 1840.81 1141.01 1842.06 1143.2C1844.98 1148.52 1854.48 1147.17 1863.35 1147.58C1868.77 1147.9 1875.97 1152.28 1880.04 1154.79C1886.3 1158.75 1890.16 1165.95 1896.01 1170.55C1903.73 1176.6 1921.78 1180.36 1922.51 1183.18C1926.79 1198.42 1936.49 1205.2 1936.59 1205.41C1938.26 1208.65 1937.53 1213.45 1938.16 1217.2C1939.62 1226.49 1941.18 1236.1 1943.27 1245.39C1949.11 1272.53 1957.36 1298.41 1968.52 1320.23C1969.36 1321.79 1969.67 1323.46 1970.5 1325.03C1972.59 1328.89 1975.3 1332.96 1977.6 1336.72L1978.54 1338.18C1979.06 1339.02 1979.69 1340.06 1980.21 1340.89C1980.73 1341.83 1981.04 1342.25 1981.46 1342.98C1981.77 1343.5 1982.19 1344.13 1982.4 1344.44C1982.71 1344.96 1982.82 1345.28 1983.03 1345.59C1986.68 1351.12 1990.33 1356.24 1994.61 1361.14C1998.89 1366.15 2003.79 1372 2008.9 1375.97C2029.35 1392.04 2052.83 1405.5 2082.36 1412.08C2094.25 1414.79 2106.04 1417.2 2117.31 1420.01C2121.49 1421.06 2125.55 1421.16 2129.52 1422.73C2129.73 1422.73 2130.46 1423.35 2130.77 1423.56C2137.03 1427.42 2142.35 1440.37 2146.84 1446.63C2149.76 1450.6 2154.56 1452.48 2158.53 1455.5C2163.22 1459.05 2168.23 1464.48 2171.26 1469.49C2177.1 1479.3 2180.75 1489.74 2184.82 1501.43C2188.89 1513.12 2193.48 1524.29 2197.24 1537.02C2200.47 1547.77 2205.79 1559.57 2206.52 1571.78C2207.57 1588.38 2204.54 1604.24 2207.15 1620.21C2211.22 1644.64 2216.44 1689.52 2210.91 1715.41C2209.55 1721.77 2204.85 1726.58 2203.29 1732.63C2202.04 1737.54 2200.99 1741.92 2200.26 1747.03C2199.95 1749.43 2194.84 1755.49 2191.39 1757.47C2186.91 1760.19 2158.32 1768.85 2157.17 1788.89C2156.75 1796.09 2152.58 1801.83 2173.97 1802.56C2195.98 1803.4 2231.46 1804.23 2237.09 1791.71C2241.16 1782.84 2237.09 1764.88 2242.31 1757.47C2245.23 1753.3 2247.22 1747.87 2247.42 1741.5C2247.84 1732.32 2246.59 1719.9 2245.76 1711.44C2244.61 1699.23 2244.82 1686.39 2244.4 1673.13C2244.19 1665.83 2243.46 1658.42 2244.82 1652.15C2247.32 1639.94 2255.77 1630.34 2257.23 1617.71C2259.01 1602.68 2254.31 1585.35 2257.23 1571.99C2267.67 1575.43 2275.91 1597.67 2281.13 1607.9C2284.88 1615.31 2292.92 1622.51 2295.94 1629.4C2304.08 1647.77 2311.59 1665.41 2319.11 1684.2C2322.24 1691.92 2326.41 1700.27 2328.71 1708.62C2329.96 1713.11 2329.12 1716.97 2329.96 1721.67C2330.58 1724.91 2328.08 1732.21 2324.32 1733.46C2296.36 1742.65 2287.18 1750.06 2289.89 1765.61C2291.25 1773.65 2305.33 1772.71 2313.68 1773.86C2324.85 1775.32 2365.33 1772.61 2366.58 1770.94C2370.55 1765.93 2373.78 1757.16 2371.59 1748.29C2370.86 1745.16 2368.77 1741.92 2368.25 1738.68C2367.31 1732.53 2371.9 1728.14 2369.61 1719.79C2367.1 1710.71 2361.68 1701.52 2358.34 1692.97C2351.45 1675.33 2345.3 1657.79 2338.31 1639.94C2334.03 1628.88 2328.39 1617.19 2324.95 1605.6C2321.61 1594.12 2323.59 1579.51 2319.32 1568.86C2315.87 1560.19 2308.36 1554.04 2304.19 1546.42C2301.58 1541.72 2300.74 1535.98 2299.07 1530.45C2296.36 1521.26 2293.23 1511.55 2292.08 1500.49C2291.77 1497.25 2290.41 1493.6 2290.83 1489.84C2291.04 1488.49 2292.29 1484.42 2293.44 1484C2298.13 1482.22 2313.89 1484.31 2319.21 1484.52C2336.11 1485.35 2354.06 1486.09 2371.28 1484.42C2405.81 1480.97 2428.66 1467.19 2454.85 1456.02C2457.98 1454.67 2469.98 1449.24 2473.95 1451.01V1451.33C2476.45 1455.92 2476.35 1465.94 2477.6 1471.68C2479.27 1479.51 2482.92 1487.76 2486.26 1494.54C2493.88 1510.09 2504.21 1524.91 2513.49 1539.21C2518.4 1546.73 2525.18 1554.04 2528.73 1562.91C2532.8 1573.24 2536.03 1590.46 2534.47 1604.14C2534.15 1607.06 2533.21 1611.34 2533.21 1614.58C2532.8 1639.52 2529.25 1663.11 2522.05 1683.36C2518.19 1694.01 2509.84 1702.05 2505.77 1712.69C2502.96 1720.1 2503.48 1717.81 2500.87 1725.32C2499.41 1729.5 2491.58 1732.11 2487.1 1732.94C2461.43 1738.06 2459.13 1744.32 2452.66 1763C2452.35 1763.94 2454.12 1766.66 2454.96 1767.18C2464.87 1773.34 2516.73 1778.45 2529.35 1770.31C2534.67 1766.87 2535.82 1758.72 2535.09 1751.31C2534.78 1748.39 2534.47 1741.92 2534.78 1739C2535.41 1733.46 2543.44 1728.04 2545.53 1722.92C2549.07 1714.05 2549.28 1708.62 2551.58 1698.81C2553.14 1692.44 2556.59 1685.76 2558.78 1679.71C2562.43 1670.11 2565.46 1660.5 2570.15 1651.74C2574.64 1643.28 2579.02 1634.62 2583.71 1626.06C2586.11 1621.88 2591.33 1616.35 2591.96 1611.24C2592.48 1607.06 2590.71 1596.83 2589.35 1593.7C2588.31 1591.2 2586.22 1589.32 2585.38 1586.19C2580.9 1567.61 2579.12 1547.88 2577.04 1527.32C2576.2 1519.49 2574.74 1509.05 2576.41 1502.37C2580.69 1504.98 2581.63 1509.99 2584.13 1514.37C2591.23 1526.9 2598.32 1540.47 2606.57 1552.16C2610.53 1557.69 2615.02 1561.34 2620.55 1565.21C2623.16 1566.98 2625.14 1569.8 2627.54 1571.68C2635.89 1578.36 2644.75 1584.62 2651.33 1592.97C2657.59 1600.9 2660.09 1616.04 2663.95 1626.48C2667.5 1636.18 2674.07 1644.95 2675.95 1656.33C2677.93 1668.54 2678.46 1681.69 2677.83 1693.7C2677.31 1704.13 2678.98 1718.75 2678.04 1728.45C2677.52 1733.36 2675.01 1738.27 2674.49 1743.17C2674.07 1747.56 2665.73 1756.95 2664.37 1760.29C2663.54 1762.38 2659.05 1763.53 2656.96 1764.78C2650.39 1768.85 2634.32 1766.24 2638.29 1791.6C2638.91 1795.36 2642.88 1794.84 2645.69 1796.82C2647.15 1797.87 2646.63 1800.68 2648.2 1801.62C2650.39 1802.98 2653.21 1804.44 2656.34 1804.86C2670.94 1806.95 2689.62 1804.86 2701.41 1799.33C2704.12 1798.08 2713.72 1792.13 2714.56 1789.83C2716.12 1785.34 2715.71 1779.39 2714.24 1774.28C2713.72 1772.61 2721.24 1753.71 2719.67 1744.74C2718.31 1737.43 2713.31 1732.21 2712.05 1724.7C2709.45 1709.46 2709.34 1683.47 2709.97 1666.56C2710.49 1651.42 2710.49 1635.24 2711.53 1619.27C2712.05 1611.76 2714.45 1601.42 2712.37 1594.01C2709.65 1584.31 2699.22 1578.57 2693.48 1571.36C2685.13 1560.82 2677.73 1547.36 2672.93 1533.58C2670.32 1526.17 2667.81 1517.92 2666.67 1509.68C2665.41 1499.97 2668.13 1488.8 2667.08 1478.57C2665.31 1461.03 2664.47 1443.92 2661.14 1428.47C2657.28 1410.72 2652.89 1393.5 2646.21 1378.26C2643.92 1373.15 2640.68 1367.61 2637.76 1362.6C2635.89 1359.47 2632.55 1356.45 2631.92 1353C2641.62 1349.77 2654.56 1361.87 2657.48 1368.76C2661.34 1377.84 2663.33 1383.48 2665.83 1393.29C2668.86 1405.5 2682.73 1420.43 2707.67 1427.63L2707.88 1428.05Z" stroke="#8D5200" stroke-width="36" mask="url(#path-25-inside-1_49_238)"/>
<defs>
<clipPath id="clip0_49_238">
<rect width="3247" height="1187.93" fill="white" transform="translate(-0.00390625 0.344727)"/>
</clipPath>
</defs>
</svg>
